<svg width="292" height="225" viewBox="0 0 292 225" fill="none" xmlns="http://www.w3.org/2000/svg">
<path d="M197.733 3.98232C196.036 7.2677 195.137 7.96461 192.84 7.96461C188.845 7.96461 187.847 9.55753 187.547 17.4226L187.247 24.3916L182.753 25.0885C180.257 25.3872 170.47 25.7854 160.883 25.7854C146.802 25.885 143.706 25.6859 144.106 24.5907C144.405 23.7943 144.305 22.6991 144.006 22.2013C143.606 21.604 137.115 18.8164 129.625 16.0288L116.043 10.9513H69.9057H23.8678L22.1701 13.9381C20.6721 16.5266 19.9731 16.9248 15.7787 16.9248C13.1822 16.9248 10.8853 17.323 10.4859 17.9204C9.58706 19.4137 0 117.08 0 125.243C0 129.226 0.499326 133.407 1.09852 134.502C1.59784 135.597 6.59111 142.268 12.0837 149.436C17.4764 156.504 21.9704 162.577 21.9704 162.777C21.9704 163.075 20.3725 163.274 18.4751 163.274C14.6802 163.274 14.4805 163.673 15.579 170.442C16.0783 173.529 16.6775 174.126 18.8745 174.425L21.471 174.723L21.7706 192.345L21.9704 209.967L25.4656 212.555L28.8611 215.144L56.1243 215.841L83.3875 216.538L83.6871 218.827C84.0865 221.715 88.8801 221.814 92.9746 218.927C96.9692 216.139 104.259 216.538 104.659 219.624C104.958 221.615 105.757 221.814 115.644 222.412C121.536 222.81 140.71 223.308 158.187 223.507C189.045 223.905 190.143 223.905 191.442 222.013C192.54 220.42 194.038 220.022 198.832 220.022C204.424 220.022 204.724 220.122 204.724 222.511V225H224.198C242.573 225 243.671 224.9 244.67 223.009C245.569 221.316 246.767 221.018 252.26 221.018C257.952 221.018 258.951 221.316 259.35 223.009C259.849 224.701 260.748 225 265.642 225H271.334L275.428 214.447C277.825 208.473 279.623 202.301 279.623 200.011V196.128H284.916C289.609 196.128 290.408 195.83 291.407 193.639C292.106 192.146 292.206 190.951 291.607 190.653C291.007 190.254 290.608 187.168 290.608 183.584C290.608 179.801 290.208 177.212 289.509 177.212C289.01 177.212 288.81 176.715 289.11 176.217C289.509 175.619 289.21 173.827 288.411 172.235C287.412 169.945 286.513 169.248 284.416 169.248C281.021 169.248 281.021 169.347 283.817 164.668C286.014 160.985 286.014 160.487 286.713 94.1814L287.512 27.3783L282.119 16.9248L276.827 6.47125L248.864 6.86948L220.902 7.2677L216.208 3.58408C212.014 0.398239 210.716 0 205.623 0C199.83 0 199.731 0 197.733 3.98232ZM207.919 23.8938L207.62 45.7965H205.223C203.026 45.7965 202.726 45.3982 202.726 41.8142C202.726 38.2301 202.527 37.8319 200.13 37.8319H197.533L197.933 21.604C198.233 3.2854 198.732 1.99115 204.624 1.99115H208.219L207.919 23.8938ZM196.635 16.1283C196.535 20.1106 196.235 26.4823 195.836 30.3651C195.237 36.9359 195.137 37.3341 192.74 37.3341C190.543 37.3341 190.243 37.8319 189.944 41.6151C189.644 46.1947 187.747 47.4889 187.847 43.0089C188.046 32.854 189.544 11.0509 190.143 10.0553C190.543 9.45798 192.141 8.96019 193.838 8.96019H196.735L196.635 16.1283ZM253.358 32.0575C252.959 44.8009 252.36 74.469 252.06 98.0642C251.561 137.589 251.66 141.67 253.458 151.228C254.457 156.903 255.156 162.577 254.856 163.872L254.457 166.261H224.198H193.938L189.844 154.015L185.749 141.869L185.949 110.011C186.149 84.4248 186.249 82.3341 186.448 99.2589C186.748 119.668 186.848 120.465 188.745 120.465C190.044 120.465 190.743 121.162 190.743 122.456C190.743 123.75 190.044 124.447 188.745 124.447C185.55 124.447 186.249 128.131 189.944 130.42C193.239 132.412 193.239 132.412 193.938 130.42C194.937 127.732 199.93 127.832 204.324 130.52L207.72 132.611V128.529C207.72 125.144 207.42 124.447 205.722 124.447C204.624 124.447 203.725 123.75 203.725 122.954C203.725 121.659 206.421 121.46 222.3 121.46C233.185 121.46 241.574 121.062 242.772 120.465C244.57 119.469 244.67 117.976 244.67 83.2301C244.67 51.073 244.47 46.8916 243.072 46.3938C242.173 46.0951 234.783 45.7965 226.594 45.7965H211.714V27.9757V10.0553L216.009 9.65709C218.305 9.45798 227.793 9.25885 237.08 9.1593L253.957 8.96019L253.358 32.0575ZM275.428 80.8407C275.229 120.465 275.528 154.513 275.928 156.504L276.727 160.288H266.74H256.853L255.755 155.409C253.158 143.164 252.459 131.316 253.059 109.015C253.358 96.3717 253.857 74.2699 254.157 59.7345C254.457 45.1991 254.956 27.8761 255.256 21.1062L255.855 8.96019H265.741H275.728L275.428 80.8407ZM109.452 14.635C109.053 16.0288 102.861 120.166 102.861 125.741C102.861 126.737 13.2821 126.139 12.3833 125.144C11.3846 124.148 22.6694 15.9292 23.9677 14.4359C25.0662 13.1416 30.6586 12.9425 67.6088 12.9425C107.555 12.9425 109.952 13.042 109.452 14.635ZM115.844 13.7389C115.844 14.1372 115.444 14.9336 114.945 15.4314C114.545 16.0288 113.647 23.396 112.948 31.8584C112.348 40.3208 110.451 65.8075 108.853 88.3075L105.857 129.425L107.854 134.602C108.953 137.489 112.948 145.254 116.643 151.825L123.334 163.772L152.295 164.27L181.255 164.867L151.396 164.768H121.636L113.047 148.938L104.559 133.108L104.659 123.551C104.859 115.089 105.657 98.9602 107.355 71.1836C107.755 66.2058 108.554 51.6704 109.253 38.7279C109.952 25.7854 110.85 14.7345 111.25 14.1372C112.049 12.8429 115.844 12.5443 115.844 13.7389ZM130.324 21.1062C139.512 24.7898 141.709 26.0841 141.809 28.0752C141.809 29.6682 137.015 28.7721 126.629 25.2876C116.143 21.8031 115.844 21.7036 115.844 18.7168C115.844 15.2323 115.245 15.2323 130.324 21.1062ZM19.9731 20.708C19.9731 22.6991 12.583 97.8651 10.9852 112.201C9.58706 124.646 9.68693 131.814 11.3846 135.796C12.1836 137.688 16.3779 144.159 20.8718 150.232C25.3658 156.305 28.9609 161.681 28.9609 162.279C28.9609 162.777 28.162 163.274 27.0635 163.274C25.0662 163.274 4.79353 137.389 2.39677 131.814C1.29825 129.126 1.79757 121.56 6.49124 74.0708C9.4872 44.0044 11.9838 19.3142 11.9838 19.1151C11.9838 19.0155 13.7814 18.9159 15.9784 18.9159C19.1741 18.9159 19.9731 19.3142 19.9731 20.708ZM285.615 33.2522C285.615 39.6239 285.515 40.0221 284.117 38.2301C283.218 37.0354 282.719 33.9491 282.719 29.3695C282.719 22.9978 282.818 22.5996 284.117 24.292C285.115 25.5863 285.615 28.6726 285.615 33.2522ZM171.069 28.573C170.37 28.7721 168.972 28.7721 168.073 28.573C167.075 28.2743 167.674 28.0752 169.272 28.0752C170.969 28.0752 171.668 28.2743 171.069 28.573ZM186.748 31.3606C186.748 32.6549 183.353 32.854 162.281 32.854C141.209 32.854 137.814 32.6549 137.814 31.3606C137.814 30.0664 141.209 29.8673 162.281 29.8673C183.353 29.8673 186.748 30.0664 186.748 31.3606ZM186.748 36.8363C186.748 38.7279 186.049 38.8274 165.776 39.0266C154.292 39.1261 143.606 39.2257 142.108 39.2257C139.911 39.3252 139.212 38.8274 139.012 37.0354L138.713 34.8451H162.681C186.049 34.8451 186.748 34.9447 186.748 36.8363ZM200.729 42.312C200.729 45.7965 200.729 45.7965 196.235 45.7965C191.741 45.7965 191.741 45.7965 191.741 42.312C191.741 38.8274 191.741 38.8274 196.235 38.8274C200.729 38.8274 200.729 38.8274 200.729 42.312ZM173.766 55.6527C173.766 73.9712 173.266 75.6637 167.874 75.6637C163.879 75.6637 163.879 75.7633 162.281 80.8407C161.482 83.6283 160.783 87.0133 160.783 88.3075C160.783 90.2987 160.284 90.5974 156.888 90.5974H153.093L152.394 85.6195C151.995 82.7323 152.195 79.8451 152.794 78.75C154.092 76.2611 152.494 71.6814 150.297 71.6814C148.999 71.6814 148.799 69.3916 148.799 56.25V40.8186H161.282H173.766V55.6527ZM181.555 46.4934C181.255 50.2766 180.057 54.5575 178.06 58.7389L174.864 65.2102V52.9646L174.764 40.8186H178.359H181.954L181.555 46.4934ZM186.548 42.0133C185.849 43.9049 182.753 44.2036 182.753 42.4115C182.753 41.4159 183.652 40.8186 184.851 40.8186C186.049 40.8186 186.748 41.3164 186.548 42.0133ZM185.05 71.6814L184.251 86.1173L177.56 86.4159C173.766 86.6151 170.77 86.3164 170.77 85.9182C170.77 84.1261 177.061 65.0111 179.258 60.2323C180.457 57.4447 182.354 52.7655 183.353 49.7788L185.25 44.3031L185.55 50.7743C185.65 54.3584 185.45 63.7168 185.05 71.6814ZM132.821 46.0951C132.821 46.2943 128.826 55.354 124.033 66.2058C116.543 83.2301 114.845 86.1173 112.848 86.4159L110.551 86.8142L111.15 77.7544C111.649 70.9845 112.448 67.4005 114.346 63.8164C115.644 61.1283 117.242 58.6394 117.741 58.2411C118.34 57.9425 120.238 55.0553 122.035 51.7699C125.131 46.0951 125.531 45.7965 129.026 45.7965C131.123 45.7965 132.821 45.896 132.821 46.0951ZM144.805 47.7876C147.301 48.385 147.301 48.5841 147.601 59.9336C147.801 70.9845 147.801 71.5819 145.803 72.1792C144.205 72.677 143.007 72.0797 140.91 69.7898C137.614 66.1062 135.317 65.708 136.216 68.8938C136.516 70.1881 136.815 72.677 136.815 74.3695C136.815 76.958 137.215 77.6549 138.813 77.6549C141.01 77.6549 141.309 78.3518 139.911 80.4425C138.613 82.5332 135.218 81.4381 135.617 79.2478C136.016 76.958 133.32 70.2876 130.124 65.9071C127.428 62.323 127.428 62.0243 131.922 52.1682L134.918 45.6969L138.613 46.3938C140.61 46.792 143.407 47.3894 144.805 47.7876ZM238.678 84.2257V120.763L234.983 120.066C232.886 119.768 221.601 119.469 210.017 119.469H188.745V101.051V82.6328H202.726C214.511 82.6328 216.708 82.4336 216.708 81.1394C216.708 79.9447 218.505 79.646 227.193 79.646H237.679V67.6991V55.7522H227.193C220.902 55.7522 216.708 55.354 216.708 54.7566C216.708 54.1593 211.415 53.7611 202.726 53.7611H188.745V50.7743V47.7876H213.712H238.678V84.2257ZM243.471 82.8319C243.671 112.5 243.471 117.378 242.173 118.473C240.875 119.569 240.675 115.686 240.675 83.6283C240.675 55.2544 240.975 47.6881 241.974 47.9867C242.872 48.385 243.272 56.4491 243.471 82.8319ZM215.709 68.6947V81.6372H202.726H189.744V68.6947V55.7522H202.726H215.709V68.6947ZM236.681 67.6991V77.6549H226.694H216.708V67.6991V57.7434H226.694H236.681V67.6991ZM127.428 76.1615C124.632 82.5332 123.433 84.1261 120.837 85.3208C119.039 86.0177 117.342 86.5155 117.142 86.3164C116.942 86.1173 118.44 82.4336 120.438 78.0531C122.435 73.7721 124.632 68.6947 125.431 66.8031L126.829 63.4182L128.826 66.0066L130.823 68.4956L127.428 76.1615ZM138.813 69.1925C138.813 69.9889 138.613 70.6859 138.413 70.6859C138.214 70.6859 137.814 69.9889 137.415 69.1925C137.115 68.396 137.315 67.6991 137.814 67.6991C138.413 67.6991 138.813 68.396 138.813 69.1925ZM133.42 74.2699C135.118 78.2522 134.618 79.3474 130.823 79.8451C128.826 80.0443 128.227 80.7411 128.027 83.3297C127.728 86.1173 128.027 86.6151 129.925 86.6151C131.722 86.6151 131.922 87.0133 131.523 89.2035C130.923 92.2898 134.918 102.942 137.814 106.029C139.712 108.02 139.712 111.504 137.914 111.504C137.614 111.504 134.519 105.431 131.123 98.0642L124.931 84.5243L126.929 79.8451C128.127 77.2566 129.425 74.1704 129.925 72.8761C131.123 69.8894 131.722 70.0885 133.42 74.2699ZM141.11 74.0708C143.506 75.8628 143.207 76.6593 140.311 76.6593C138.513 76.6593 137.814 76.1615 137.814 74.6682C137.814 72.3783 138.613 72.1792 141.11 74.0708ZM150.896 74.2699C151.895 75.1659 152.394 76.4602 152.095 77.2566C151.196 79.5465 149.598 78.8496 150.197 76.3606C150.497 75.1659 150.497 74.6682 150.197 75.2655C149.698 76.4602 145.803 75.9624 145.803 74.7677C145.803 72.3783 148.5 72.0797 150.896 74.2699ZM149.398 79.1482C152.894 84.5243 152.095 101.051 148.2 105.033C146.702 106.527 146.402 106.527 144.805 105.033C140.61 101.25 139.811 86.4159 143.307 79.5465C145.204 75.9624 147.201 75.8628 149.398 79.1482ZM170.77 79.646C170.77 81.2389 170.071 81.6372 167.274 81.6372C163.479 81.6372 163.479 81.6372 164.378 79.2478C164.778 78.2522 166.176 77.6549 167.874 77.6549C170.071 77.6549 170.77 78.1527 170.77 79.646ZM134.818 84.1261C134.818 85.1217 133.819 85.6195 131.822 85.6195C129.825 85.6195 128.826 85.1217 128.826 84.1261C128.826 83.1305 129.825 82.6328 131.822 82.6328C133.819 82.6328 134.818 83.1305 134.818 84.1261ZM136.516 84.823C136.216 85.6195 135.917 85.3208 135.917 84.2257C135.817 83.1305 136.116 82.5332 136.416 82.9314C136.716 83.2301 136.815 84.1261 136.516 84.823ZM140.111 88.3075C139.712 93.5841 140.51 99.458 142.308 103.739C142.907 105.133 142.508 105.531 140.51 105.531C138.713 105.531 137.614 104.635 136.416 102.146C135.517 100.254 134.818 98.3628 134.818 97.8651C134.818 97.4668 134.119 95.7743 133.32 94.281C131.523 90.7965 132.821 86.6151 135.817 86.6151C137.115 86.6151 137.814 85.9182 137.814 84.6239C137.814 83.5288 138.413 82.6328 139.212 82.6328C140.311 82.6328 140.51 83.8274 140.111 88.3075ZM168.972 86.6151C168.573 89.104 168.073 89.6018 165.676 89.6018C163.08 89.6018 162.78 89.2035 162.78 86.6151C162.78 83.927 163.08 83.6283 166.076 83.6283C169.272 83.6283 169.371 83.8274 168.972 86.6151ZM131.023 100.055C134.618 108.02 137.315 114.491 136.915 114.491C136.516 114.491 135.517 113.396 134.818 112.102C133.819 110.21 132.621 109.513 129.425 109.314C124.931 109.015 125.531 109.712 119.439 96.2721L115.844 88.5066L119.139 87.1128C120.837 86.3164 122.834 85.719 123.334 85.719C123.933 85.6195 127.328 92.1903 131.023 100.055ZM118.54 96.2721L121.736 103.54H117.541C113.547 103.54 113.047 103.241 111.549 100.055C109.852 96.4712 109.253 90.4978 110.551 89.2035C110.95 88.8053 112.149 88.6062 113.247 88.8053C114.645 89.0044 116.243 91.2943 118.54 96.2721ZM183.752 97.5664C183.752 105.531 183.552 106.527 181.954 106.527C180.956 106.527 179.658 107.024 178.959 107.721C177.461 109.215 177.461 109.314 174.265 99.5575C172.767 94.8783 171.269 90.4978 170.969 89.8009C170.67 88.9049 172.268 88.6062 177.161 88.6062H183.752V97.5664ZM170.57 94.7788C170.869 97.4668 170.67 97.5664 166.875 97.5664C162.98 97.5664 162.78 97.4668 162.78 94.4801C162.78 91.5929 162.98 91.4934 166.575 91.792C169.771 92.0907 170.27 92.4889 170.57 94.7788ZM172.168 102.146C173.166 104.735 172.867 105.232 170.27 105.73C168.473 106.128 167.374 105.631 166.276 103.938C164.178 100.752 164.278 100.553 168.173 100.553C170.37 100.553 171.768 101.15 172.168 102.146ZM116.643 105.73C118.24 107.323 118.141 108.518 116.443 108.518C110.651 108.518 110.351 125.144 116.043 127.035C118.44 127.732 117.841 129.823 115.045 130.221C111.849 130.719 109.452 125.343 109.552 117.478C109.552 107.92 113.047 102.146 116.643 105.73ZM122.635 107.323C122.934 108.219 122.435 108.617 121.236 108.319C120.338 108.219 119.339 107.423 119.039 106.726C118.74 105.83 119.239 105.431 120.438 105.73C121.336 105.83 122.335 106.626 122.635 107.323ZM174.764 108.518C174.764 109.015 173.666 109.513 172.268 109.513C170.869 109.513 169.771 109.015 169.771 108.518C169.771 107.92 170.869 107.522 172.268 107.522C173.666 107.522 174.764 107.92 174.764 108.518ZM184.052 125.642C184.451 143.562 184.551 144.06 188.246 154.613C190.243 160.586 191.741 165.664 191.442 165.962C191.142 166.261 189.045 166.162 186.848 165.763L182.753 165.066L179.757 155.708C175.363 142.069 174.764 131.416 177.76 119.369C179.957 110.31 181.156 107.522 182.753 107.522C183.153 107.522 183.752 115.686 184.052 125.642ZM146.103 109.215C145.404 109.414 144.205 109.414 143.606 109.215C142.907 108.916 143.407 108.717 144.805 108.717C146.203 108.717 146.702 108.916 146.103 109.215ZM120.637 112.6C119.639 115.586 119.938 121.261 121.336 124.646C121.935 126.139 121.536 126.438 119.039 126.438C115.145 126.438 112.848 123.352 112.848 118.274C112.848 112.301 114.645 109.513 118.44 109.513C121.636 109.513 121.736 109.513 120.637 112.6ZM149.598 112.699C149.199 116.781 146.802 117.677 146.802 113.695C146.802 112.102 147.102 110.509 147.501 110.21C148.999 108.617 149.898 109.712 149.598 112.699ZM134.618 113.695C136.016 115.985 136.016 116.881 134.818 120.465C134.119 122.655 133.12 124.746 132.721 124.945C131.423 125.841 129.126 120.863 128.527 115.686C127.927 110.509 127.927 110.409 130.424 110.708C131.922 110.907 133.62 112.102 134.618 113.695ZM177.461 114.192C177.161 115.188 176.961 114.591 176.961 112.998C176.961 111.305 177.161 110.608 177.461 111.206C177.66 111.903 177.66 113.296 177.461 114.192ZM145.803 113.496C145.803 114.989 145.104 115.487 143.307 115.487C141.509 115.487 140.81 114.989 140.81 113.496C140.81 112.002 141.509 111.504 143.307 111.504C145.104 111.504 145.803 112.002 145.803 113.496ZM174.764 112.5C174.764 112.998 173.466 113.496 171.768 113.496C170.17 113.496 168.772 112.998 168.772 112.5C168.772 111.903 170.17 111.504 171.768 111.504C173.466 111.504 174.764 111.903 174.764 112.5ZM137.315 122.655C135.817 126.538 134.219 129.226 133.72 128.728C133.22 128.23 134.319 124.447 136.116 120.066C137.914 115.586 139.512 112.998 139.712 113.993C139.811 114.989 138.813 118.872 137.315 122.655ZM174.764 116.98C174.764 117.976 173.766 118.473 171.768 118.473C169.771 118.473 168.772 117.976 168.772 116.98C168.772 115.985 169.771 115.487 171.768 115.487C173.766 115.487 174.764 115.985 174.764 116.98ZM202.227 122.456C202.227 123.551 200.929 124.049 197.533 124.248C193.239 124.546 192.74 124.347 192.74 122.456C192.74 120.564 193.239 120.365 197.533 120.664C200.929 120.863 202.227 121.361 202.227 122.456ZM174.764 123.053C174.764 123.949 174.065 124.447 173.066 124.248C170.57 123.75 170.27 121.46 172.667 121.46C173.865 121.46 174.764 122.058 174.764 123.053ZM132.721 129.624L135.817 135.398H131.922C127.029 135.398 122.435 133.108 121.037 129.923C119.938 127.633 120.038 127.434 122.335 127.434C124.832 127.434 127.828 125.144 127.828 123.153C127.828 121.361 129.326 123.451 132.721 129.624ZM201.728 126.438C201.728 127.035 198.932 127.434 195.237 127.434C191.542 127.434 188.745 127.035 188.745 126.438C188.745 125.841 191.542 125.442 195.237 125.442C198.932 125.442 201.728 125.841 201.728 126.438ZM206.222 127.235C206.222 129.027 204.224 128.728 203.925 126.836C203.625 125.841 204.025 125.343 204.924 125.642C205.623 125.94 206.222 126.637 206.222 127.235ZM90.9772 128.429H102.661L103.361 132.013C103.66 134.004 107.555 142.168 111.949 150.232L119.838 164.768L110.151 165.066C104.859 165.166 99.8653 165.066 99.1662 164.867C98.4671 164.569 97.868 162.876 97.868 160.985C97.868 158.894 96.37 155.31 93.5737 150.83L89.2795 143.861L70.5049 143.562C57.7221 143.363 51.2309 143.662 50.3321 144.458C49.4333 145.155 48.934 148.44 48.7342 154.115L48.4347 162.777L40.8449 163.075L33.1553 163.374L23.9677 150.631C14.4805 137.589 11.9838 133.108 11.9838 129.325V127.135L45.7383 127.732C64.2134 128.131 84.5859 128.429 90.9772 128.429ZM174.764 133.905C174.764 135.199 172.168 135.398 155.59 135.199C141.409 135 136.416 134.602 136.016 133.606C135.717 132.71 140.011 132.412 155.191 132.412C172.068 132.412 174.764 132.611 174.764 133.905ZM175.064 143.662C175.463 146.549 176.662 151.527 177.76 154.812C178.859 157.998 179.757 160.985 179.757 161.482C179.757 161.881 167.274 162.279 151.995 162.279H124.133L122.934 159.889C121.736 157.799 122.035 156.405 125.331 147.942L129.026 138.385H151.795H174.465L175.064 143.662ZM124.931 144.956C123.833 147.644 122.535 151.128 121.935 152.721C121.236 154.314 120.537 155.31 120.238 155.011C119.938 154.812 121.137 151.128 122.934 146.947C126.429 138.584 127.927 137.091 124.931 144.956ZM92.7748 152.423C97.4685 160.586 97.9678 163.772 94.6723 164.668C93.374 164.967 82.7883 165.265 71.2039 165.265H49.9326V156.007C49.9326 150.83 50.2322 146.35 50.6317 146.051C50.9313 145.653 59.7194 145.354 69.9057 145.354H88.5805L92.7748 152.423ZM276.627 168.65C276.627 173.827 276.527 174.126 273.531 175.122C271.733 175.719 267.239 176.217 263.544 176.217H256.654V169.746V163.274H266.64H276.627V168.65ZM51.0311 166.46C54.4266 167.456 54.9259 167.954 54.9259 170.542V173.529L37.7491 172.931C28.2619 172.533 19.8732 172.235 19.274 172.235C18.4751 172.235 17.9757 170.841 17.9757 168.75V165.265H32.5561C40.745 165.265 48.934 165.763 51.0311 166.46ZM93.8733 173.131C93.8733 180.498 93.8733 180.597 89.679 181.593L86.8828 182.19V174.823C86.8828 167.456 86.8828 167.356 89.679 166.958C91.177 166.759 92.675 166.46 93.1743 166.361C93.5737 166.361 93.8733 169.347 93.8733 173.131ZM85.6844 175.022L85.984 182.29L71.2039 181.991L56.4239 181.692L56.2241 174.425L55.9245 167.157L70.7046 167.456L85.3848 167.754L85.6844 175.022ZM254.457 168.75C255.056 169.049 255.655 170.741 255.655 172.832V176.416L190.044 175.719C153.992 175.321 117.941 174.723 109.952 174.325L95.4712 173.728L95.5711 170.94C95.6709 169.447 95.6709 168.053 95.7708 167.854C95.8707 167.356 252.859 168.252 254.457 168.75ZM284.616 176.217C284.616 180.1 284.516 180.199 281.121 180.199C277.326 180.199 276.926 179.204 278.624 174.823C279.323 172.931 280.322 172.235 282.119 172.235C284.416 172.235 284.616 172.633 284.616 176.217ZM54.7262 179.403C54.9259 182.091 55.5251 183.186 56.7235 183.385C59.7194 183.684 64.2134 183.783 73.7006 183.982L82.8882 184.181V199.115V214.148L56.2241 213.451C32.0567 212.854 29.1607 212.555 26.7639 210.863L23.9677 208.971V192.046V175.122L39.247 175.42L54.4266 175.719L54.7262 179.403ZM216.208 179.701C217.906 179.801 230.589 180 244.47 180L269.636 180.199V202.102V224.004H265.741C262.745 224.004 261.647 223.507 261.148 222.113C260.449 219.723 257.852 219.027 249.364 219.027C243.172 219.027 242.573 219.226 241.774 221.316C241.075 223.009 240.176 223.606 238.478 223.407C237.28 223.308 229.59 223.108 221.501 223.108C207.72 223.009 206.721 222.909 206.721 221.117C206.721 218.529 204.824 218.031 196.135 218.031C189.245 218.031 188.745 218.131 188.745 220.122C188.745 222.013 188.346 222.212 185.05 221.615C182.953 221.316 180.457 221.018 179.558 221.018C177.96 221.018 177.76 219.923 177.76 212.058C177.76 205.686 177.361 202.898 176.562 202.6C175.863 202.4 159.485 202.102 140.111 201.803L104.958 201.405L104.659 208.473L104.359 215.542H96.8693C90.5778 215.542 89.3794 215.841 89.0798 217.235C88.8801 218.23 87.8814 219.027 86.7829 219.027C84.9853 219.027 84.8855 218.131 84.8855 202.6C84.8855 193.54 84.7856 185.874 84.6857 185.376C84.486 184.978 86.4833 184.181 89.0798 183.485C94.872 182.091 95.8707 181.493 95.8707 179.602C95.8707 178.208 102.262 178.108 154.591 178.805C186.848 179.204 214.61 179.602 216.208 179.701ZM286.613 188.662V195.232L280.921 194.934L275.129 194.635L274.829 188.363L274.53 182.19H280.621H286.613V188.662ZM163.479 204.093H172.767V213.153V222.312L150.597 221.715C138.313 221.316 123.234 221.018 117.142 221.018H105.857V211.858V202.799L130.025 203.396C143.307 203.794 158.286 204.093 163.479 204.093ZM176.562 213.551C176.362 217.832 175.863 221.515 175.264 221.715C174.465 221.914 174.165 210.365 174.764 204.093C174.764 203.894 175.264 204.192 175.763 204.69C176.362 205.288 176.762 209.071 176.562 213.551Z" fill="#FBFBFB" fill-opacity="0.2"/>
<path d="M43.4417 69.6903C42.1435 71.781 39.1475 110.011 40.0463 111.704C40.9451 113.296 42.8425 113.496 57.4229 113.496C75.9978 113.496 76.7967 113.197 76.9964 106.228C76.9964 103.938 77.5956 95.177 78.1948 86.8142C78.8939 78.4514 79.0936 70.885 78.5943 70.0885C77.9951 68.9934 74.5997 68.6947 60.9181 68.6947C50.5322 68.6947 43.8412 69.0929 43.4417 69.6903ZM77.296 70.5863C77.9951 71.6814 75.2987 109.016 74.3999 110.509C74.0005 111.106 68.0086 111.504 58.821 111.504H43.941V108.916C43.941 104.934 46.937 72.3783 47.4363 70.885C47.9357 69.3916 76.3973 69.0929 77.296 70.5863Z" fill="#FBFBFB" fill-opacity="0.2"/>
<path d="M189.744 100.553C189.744 112.5 190.044 116.681 191.042 116.88C191.642 117.179 202.227 117.577 214.511 117.876L236.681 118.374V101.549V84.6238H213.212H189.744V100.553ZM204.724 90.0994V94.5795H197.733H190.743V90.0994V85.6194H197.733H204.724V90.0994ZM220.503 101.25L220.802 116.482H213.212H205.723V101.051V85.5198L213.013 85.8185L220.203 86.1171L220.503 101.25ZM232.586 86.2167C235.383 86.814 235.682 87.2123 235.682 90.6968V94.5795H228.692H221.701V90.0994V85.6194H225.596C227.693 85.6194 230.889 85.918 232.586 86.2167ZM204.724 106.029V116.582L198.033 116.283L191.242 115.984L190.943 105.73L190.643 95.5751H197.733H204.724V106.029ZM235.682 106.626C235.682 116.283 235.482 117.577 234.084 117.08C233.186 116.781 230.09 116.482 227.094 116.482H221.701V106.029V95.5751H228.692H235.682V106.626Z" fill="#FBFBFB" fill-opacity="0.2"/>
<path d="M191.742 68.1974V78.7505L203.027 78.4518L214.212 78.1531V68.1974V58.2416L203.027 57.943L191.742 57.6443V68.1974Z" fill="#FBFBFB" fill-opacity="0.2"/>
<path d="M219.504 61.4269C220.103 61.6262 221.302 61.6262 222.001 61.4269C222.6 61.128 222.101 60.9287 220.703 60.9287C219.304 60.9287 218.805 61.128 219.504 61.4269Z" fill="#FBFBFB" fill-opacity="0.2"/>
<path d="M224.497 61.4269C225.096 61.6262 226.295 61.6262 226.994 61.4269C227.593 61.128 227.094 60.9287 225.696 60.9287C224.298 60.9287 223.798 61.128 224.497 61.4269Z" fill="#FBFBFB" fill-opacity="0.2"/>
<path d="M231.488 61.4269C232.087 61.6262 233.285 61.6262 233.984 61.4269C234.583 61.128 234.084 60.9287 232.686 60.9287C231.288 60.9287 230.788 61.128 231.488 61.4269Z" fill="#FBFBFB" fill-opacity="0.2"/>
<path d="M218.705 63.7168C218.705 64.2146 219.204 64.7124 219.804 64.7124C220.303 64.7124 220.503 64.2146 220.203 63.7168C219.903 63.1195 219.404 62.7213 219.105 62.7213C218.905 62.7213 218.705 63.1195 218.705 63.7168Z" fill="#FBFBFB" fill-opacity="0.2"/>
<path d="M230.688 63.9159C230.688 64.3142 231.587 64.7124 232.686 64.7124C233.784 64.7124 234.683 64.3142 234.683 63.9159C234.683 63.5177 233.784 63.1195 232.686 63.1195C231.587 63.1195 230.688 63.5177 230.688 63.9159Z" fill="#FBFBFB" fill-opacity="0.2"/>
<path d="M218.705 66.7034C218.705 67.2012 219.204 67.699 219.704 67.699C220.303 67.699 220.702 67.2012 220.702 66.7034C220.702 66.1061 220.303 65.7078 219.704 65.7078C219.204 65.7078 218.705 66.1061 218.705 66.7034Z" fill="#FBFBFB" fill-opacity="0.2"/>
<path d="M225.695 66.7034C225.695 67.2012 226.195 67.699 226.694 67.699C227.293 67.699 227.693 67.2012 227.693 66.7034C227.693 66.1061 227.293 65.7078 226.694 65.7078C226.195 65.7078 225.695 66.1061 225.695 66.7034Z" fill="#FBFBFB" fill-opacity="0.2"/>
<path d="M230.688 66.803C230.688 67.3007 231.587 67.699 232.686 67.699C233.784 67.699 234.683 67.3007 234.683 66.9025C234.683 66.5043 233.784 66.1061 232.686 66.0065C231.587 65.9069 230.688 66.2056 230.688 66.803Z" fill="#FBFBFB" fill-opacity="0.2"/>
<path d="M218.705 69.7896C218.705 70.2874 219.204 70.4865 219.704 70.1878C220.303 69.8891 220.702 69.3913 220.702 69.0927C220.702 68.8935 220.303 68.6944 219.704 68.6944C219.204 68.6944 218.705 69.1922 218.705 69.7896Z" fill="#FBFBFB" fill-opacity="0.2"/>
<path d="M226.194 69.6902C226.494 70.188 226.993 70.6858 227.293 70.6858C227.493 70.6858 227.692 70.188 227.692 69.6902C227.692 69.0929 227.193 68.6946 226.594 68.6946C226.095 68.6946 225.895 69.0929 226.194 69.6902Z" fill="#FBFBFB" fill-opacity="0.2"/>
<path d="M230.688 69.4914C230.688 69.8896 231.587 70.2878 232.686 70.2878C233.784 70.2878 234.683 69.8896 234.683 69.4914C234.683 69.0932 233.784 68.6949 232.686 68.6949C231.587 68.6949 230.688 69.0932 230.688 69.4914Z" fill="#FBFBFB" fill-opacity="0.2"/>
<path d="M219.504 72.3784C220.103 72.5777 221.302 72.5777 222.001 72.3784C222.6 72.0794 222.101 71.8801 220.703 71.8801C219.304 71.8801 218.805 72.0794 219.504 72.3784Z" fill="#FBFBFB" fill-opacity="0.2"/>
<path d="M224.497 72.3784C225.096 72.5777 226.295 72.5777 226.994 72.3784C227.593 72.0794 227.094 71.8801 225.696 71.8801C224.298 71.8801 223.798 72.0794 224.497 72.3784Z" fill="#FBFBFB" fill-opacity="0.2"/>
<path d="M231.488 72.3784C232.087 72.5777 233.285 72.5777 233.984 72.3784C234.583 72.0794 234.084 71.8801 232.686 71.8801C231.288 71.8801 230.788 72.0794 231.488 72.3784Z" fill="#FBFBFB" fill-opacity="0.2"/>
<path d="M220.203 74.6681C218.306 75.4645 218.306 75.5641 220.503 75.5641C221.701 75.6636 222.7 75.1659 222.7 74.6681C222.7 74.0707 222.6 73.6725 222.5 73.7721C222.3 73.7721 221.302 74.1703 220.203 74.6681Z" fill="#FBFBFB" fill-opacity="0.2"/>
<path d="M223.698 74.7676C223.698 75.2653 224.597 75.6636 225.696 75.6636C226.794 75.6636 227.693 75.4645 227.693 75.2653C227.693 75.0662 226.794 74.668 225.696 74.3693C224.597 74.0707 223.698 74.2698 223.698 74.7676Z" fill="#FBFBFB" fill-opacity="0.2"/>
<path d="M232.187 74.6681C230.289 75.4645 230.289 75.5641 232.486 75.5641C233.684 75.6636 234.683 75.1659 234.683 74.6681C234.683 74.0707 234.583 73.6725 234.483 73.7721C234.284 73.7721 233.285 74.1703 232.187 74.6681Z" fill="#FBFBFB" fill-opacity="0.2"/>
<path d="M144.805 84.5246C143.706 86.6153 143.406 95.4759 144.405 97.9649C145.204 100.155 147.501 99.956 148.799 97.6662C150.797 93.7834 149.398 82.633 146.902 82.633C146.303 82.633 145.404 83.529 144.805 84.5246Z" fill="#FBFBFB" fill-opacity="0.2"/>
<path d="M68.4068 205.088C67.3083 206.88 69.4055 208.274 72.5013 207.876C76.4959 207.478 76.2962 204.69 72.2017 204.292C70.504 204.093 68.8063 204.491 68.4068 205.088Z" fill="#FBFBFB" fill-opacity="0.2"/>
<path d="M88.8799 192.046V195.829L94.1727 196.427C96.969 196.725 108.953 197.024 120.737 197.024C132.521 197.124 142.408 197.422 142.807 197.621C143.207 197.821 153.293 198.119 165.377 198.119L187.247 198.318L187.547 193.838L187.846 189.458L181.655 188.761C178.259 188.462 155.989 188.163 132.221 188.163H88.8799V192.046Z" fill="#FBFBFB" fill-opacity="0.2"/>
<path d="M88.2802 202.4C87.9806 203.197 87.8807 205.586 88.0805 207.677L88.3801 211.56H95.3706H102.361V206.582V201.604L95.5704 201.305C90.4772 201.106 88.6797 201.305 88.2802 202.4Z" fill="#FBFBFB" fill-opacity="0.2"/>
<path d="M190.443 205.785C190.044 206.084 189.744 208.274 189.744 210.664C189.744 215.642 190.443 216.04 198.832 216.04H204.724V211.161V206.383L199.531 205.686C192.74 204.889 191.242 204.889 190.443 205.785Z" fill="#FBFBFB" fill-opacity="0.2"/>
<path d="M244.071 207.478C243.772 208.275 243.672 210.565 243.871 212.655L244.171 216.538L251.461 216.837L258.652 217.135V211.56V206.085H251.661C246.568 206.085 244.471 206.483 244.071 207.478Z" fill="#FBFBFB" fill-opacity="0.2"/>
<path d="M118.54 209.768C118.14 210.067 117.841 211.46 117.841 212.755C117.841 214.845 118.24 215.044 122.734 215.044C128.127 215.044 129.325 214.148 128.327 211.062C127.827 209.469 126.829 209.071 123.433 209.071C121.136 209.071 118.839 209.37 118.54 209.768Z" fill="#FBFBFB" fill-opacity="0.2"/>
<path d="M149.798 211.161C148.2 214.049 150.197 216.04 154.791 216.04C159.385 216.04 161.382 214.049 159.785 211.161C158.986 209.569 157.687 209.071 154.791 209.071C151.895 209.071 150.597 209.569 149.798 211.161Z" fill="#FBFBFB" fill-opacity="0.2"/>
</svg>
