<svg width="371" height="225" viewBox="0 0 371 225" fill="none" xmlns="http://www.w3.org/2000/svg">
<path d="M21.8565 0.832779C18.8646 2.89874 13.6029 15.0879 10.5078 27.277L7 40.7057L7.10317 103.717C7.20634 138.425 7.51585 172.204 7.92853 178.712L8.54755 190.591L21.9597 191.83C29.3879 192.553 47.03 194.31 61.3706 195.756C96.2421 199.268 95.6231 199.268 102.226 194.31L107.591 190.281L142.153 193.277C261.314 204.019 251.307 203.296 253.576 201.024C256.878 197.718 258.632 200.404 259.354 210.217C259.663 214.762 259.973 218.584 260.076 218.584C260.592 218.998 338.382 225.299 338.588 224.989C341.58 220.754 344.366 214.246 344.366 211.354C344.366 209.288 344.779 207.635 345.398 207.635C345.914 207.635 347.358 205.672 348.699 203.193C350.866 198.958 350.969 197.718 350.969 166.626C351.072 137.496 351.278 134.294 352.723 134.294C353.651 134.294 354.993 134.913 355.612 135.74C357.469 138.012 360.357 136.566 362.833 132.228C364.484 129.232 365 126.546 365 120.452V112.601H352.207C345.088 112.601 339.104 112.188 338.795 111.671C338.485 111.258 338.176 99.1723 338.073 84.8139L337.866 58.8861H328.271H318.573V49.5893V40.2925H326.208C334.049 40.2925 335.39 39.6728 336.422 35.6441C336.731 34.198 336.938 34.6112 337.041 36.7804C337.144 41.0156 339.62 43.1849 342.406 41.5321C343.437 40.809 347.152 40.2925 350.556 40.2925C356.437 40.2925 356.746 40.1892 356.746 37.7101C356.746 35.231 356.437 35.1277 350.556 35.1277H344.366V23.3517C344.366 9.8197 343.953 8.27022 340.755 8.27022C338.279 8.27022 337.144 10.0263 337.144 13.9516C337.144 17.1538 336.525 17.3604 330.438 16.6374C325.383 16.0176 325.28 16.0175 325.28 12.4021C325.28 9.40649 324.867 8.68341 323.01 8.47682C320.946 8.16693 320.637 8.58011 320.637 12.0922V16.0176L291.233 15.7077C270.806 15.5011 261.83 15.7077 261.83 16.4308C261.83 17.0506 260.901 17.567 259.767 17.567C258.632 17.567 257.703 17.9802 257.703 18.6C257.703 19.1165 256.878 19.633 255.846 19.633C254.814 19.633 253.061 20.2528 252.029 21.0792C250.069 22.5253 250.069 22.6286 251.926 24.6946C253.061 25.9342 254.402 26.8638 255.124 26.8638C258.529 26.8638 263.171 30.6859 267.401 36.987C271.941 43.5981 272.147 44.3212 272.147 51.0355C272.147 57.0268 271.941 57.9565 270.496 57.44C269.568 57.1301 264.512 56.8202 259.251 56.8202H249.553L249.243 53.4114L248.934 50.1058L236.347 49.7959L223.657 49.486V46.1805C223.657 44.3212 224.173 42.1519 224.792 41.3255C225.72 39.9827 225.824 39.9827 225.411 41.4288C224.689 43.7014 226.236 45.8706 227.99 45.1475C229.125 44.7343 229.538 42.5651 229.538 36.7804C229.538 29.7562 229.331 28.9298 227.681 28.9298C226.546 28.9298 225.72 29.6529 225.72 30.5826C225.72 31.7188 225.205 32.0287 224.07 31.6155C223.141 31.3056 217.364 30.9957 211.173 30.9957C200.753 30.9957 199.928 30.8924 199.928 29.0331C199.928 27.8968 199.515 26.6572 198.896 26.3474C198.277 26.0374 197.865 24.5913 197.865 23.1451C197.865 20.9759 197.349 20.666 194.254 20.666C192.293 20.666 190.643 20.2528 190.643 19.633C190.643 18.7033 194.666 17.3604 205.912 14.4681C209.523 13.5384 210.245 12.9186 210.245 10.8527C210.245 9.5098 209.832 8.16693 209.316 7.85703C208.904 7.54713 204.571 8.89001 199.825 10.8527C194.769 12.9186 189.405 14.4681 186.825 14.4681C182.905 14.4681 182.492 14.6747 182.183 17.2571C181.873 19.7363 181.357 20.1495 178.056 20.4594C174.651 20.7693 174.135 21.1824 174.135 23.3517C174.135 24.6946 173.723 25.8309 173.104 25.8309C172.588 25.8309 172.072 26.9671 172.072 28.4133C172.072 30.5826 171.556 30.9957 168.977 30.9957H165.882V41.6354V52.3784L149.684 52.9982C124.614 54.0311 121.519 53.9278 121.519 52.1718C121.519 51.3454 120.9 50.6223 120.074 50.6223C118.424 50.6223 117.392 47.5234 117.392 42.6684C117.392 39.3629 117.392 39.3629 123.273 39.053C128.741 38.7431 129.256 38.5365 131.217 35.231C135.756 27.4836 134.002 5.99767 128.741 3.10533C127.709 2.48555 123.995 2.07236 120.59 2.07236C117.186 2.07236 114.09 1.55586 113.781 1.03938C113.059 -0.200195 23.6104 -0.406784 21.8565 0.832779ZM35.8876 3.62183C35.8876 3.93172 34.7527 6.41086 33.4115 9.0966C32.0703 11.8857 29.1816 20.4594 27.1182 28.31L23.3009 42.6684L22.785 74.4841C22.2692 101.342 22.3723 106.403 23.6104 106.816C25.2611 107.436 69.4179 110.535 75.9176 110.535H80.2507V85.3304V60.1257L77.7746 59.7125C76.4334 59.4026 68.902 59.0927 60.9579 58.9894C42.5937 58.7828 28.6657 57.8532 28.6657 56.7169C28.6657 56.2004 29.8006 55.0641 31.245 54.1344C33.3084 52.7916 35.2686 52.585 40.8398 53.1015C44.6571 53.5146 57.0375 54.0311 68.283 54.341C79.5285 54.5476 89.2265 55.0641 89.7424 55.374C90.9804 56.2004 89.6392 59.9191 86.8536 63.3279C84.3775 66.2203 82.3141 72.1082 82.3141 76.1369C82.3141 78.2028 82.83 78.5127 86.4409 78.5127C90.9804 78.5127 91.2899 79.0292 88.917 82.5413C87.4726 84.504 87.4726 85.3304 88.5043 87.3963C89.3297 88.7392 90.2582 89.8755 90.6709 89.8755C91.0836 89.8755 91.1867 90.8051 90.8772 91.9414C90.5677 93.0777 89.6392 94.0074 88.917 94.0074C86.9568 94.0074 87.0599 98.036 89.0202 98.7591C91.2899 99.6888 90.8772 101.961 88.5043 102.581C87.2663 102.891 86.4409 104.027 86.4409 105.37C86.4409 106.713 87.2663 107.849 88.5043 108.159C91.5994 108.986 90.9804 111.052 87.2663 112.188C84.1712 113.117 54.9741 111.775 19.2772 108.986L10.4046 108.262L9.68242 75.827L8.96023 43.4948L12.1585 30.7892C13.9124 23.5583 16.9043 14.8813 19.0709 10.5428L22.8882 3.10533H29.3879C32.9988 3.10533 35.8876 3.31194 35.8876 3.62183ZM92.6311 9.30321L89.536 15.5011H62.2991C37.2288 15.5011 34.9591 15.6044 34.4432 17.2571C34.1337 18.2901 32.483 24.1781 30.6259 30.4792C28.7689 36.6771 27.015 45.5607 26.6023 50.1058L25.8801 58.3696L25.7769 50.3124C25.5706 40.3958 30.1101 20.4594 35.0622 10.0263L38.3637 3.10533H67.045H95.7262L92.6311 9.30321ZM98.9245 5.06799C92.9406 11.0593 93.6628 33.9914 99.853 37.2969C100.678 37.7101 104.599 38.4332 108.416 38.7431L115.432 39.4662L115.122 43.7014L114.813 48.0399L104.496 50.3124C98.8213 51.552 93.3533 52.585 92.4248 52.585C90.6709 52.6883 90.5677 51.1388 90.5677 34.7145C90.5677 16.8439 90.5677 16.7406 93.766 9.92299C96.0357 5.06799 97.4801 3.10533 98.9245 3.10533C100.885 3.10533 100.885 3.10533 98.9245 5.06799ZM120.797 7.44385C118.32 12.1955 118.217 29.0331 120.693 33.7848L122.344 37.1936H116.257C111.099 37.1936 109.964 36.8837 108.622 34.8178C104.599 28.6199 104.599 12.712 108.622 6.51416C109.964 4.44821 111.099 4.13831 116.36 4.13831H122.654L120.797 7.44385ZM129.772 7.75374C132.145 12.4021 131.939 30.6859 129.463 34.4046C124.923 41.3255 121.003 34.9211 121.003 20.666C121.003 6.10098 125.542 -0.613388 129.772 7.75374ZM102.329 8.9933C100.472 14.3648 100.472 28.1034 102.432 32.6485C103.567 35.3342 103.567 36.1606 102.639 35.954C98.615 34.6112 97.4801 13.6417 101.194 7.96033C103.67 4.13831 103.98 4.44821 102.329 8.9933ZM104.908 10.1296C103.773 13.5384 104.083 29.2397 105.424 34.0947C106.043 36.3672 105.94 36.3672 104.289 33.5782C101.916 29.6529 101.607 12.2988 103.773 8.47682C105.631 5.1713 106.353 6.20427 104.908 10.1296ZM340.136 25.0045C340.033 34.0947 339.723 38.5365 339.207 36.6771C337.763 31.099 338.279 10.3362 339.827 10.3362C340.033 10.3362 340.136 16.9473 340.136 25.0045ZM89.536 35.1277V53.8246L71.7908 53.1015C61.9896 52.6883 53.736 52.2751 53.6329 52.0685C53.4265 51.9652 53.8392 50.2091 54.5614 48.2465C55.7994 44.8376 56.0058 44.7343 60.2357 45.2508C64.1562 45.664 65.0847 45.3541 67.8703 42.5651C70.5527 39.8793 70.9654 38.6398 70.9654 34.0947C70.9654 29.5496 70.5527 28.31 67.9735 25.7276C59.5135 17.2571 47.8553 26.7605 51.9821 38.8464C53.4265 43.0816 53.3233 43.5981 51.3631 47.5234L49.2997 51.6553H42.5937H35.8876V34.8178C35.8876 25.521 36.1971 17.567 36.6098 17.2571C36.9193 16.8439 48.9902 16.5341 63.434 16.5341H89.536V35.1277ZM343.334 25.0045C343.334 30.8924 343.025 33.0617 342.303 32.0287C340.755 29.5496 341.271 16.5341 342.922 16.5341C343.128 16.5341 343.334 20.3561 343.334 25.0045ZM301.757 18.6H310.32V30.9957V43.3915H292.884H275.448L270.187 36.1606C265.338 29.5496 264.925 28.5166 264.925 23.1451V17.2571L279.059 17.8769C286.797 18.2901 297.011 18.6 301.757 18.6ZM188.579 19.633C188.579 20.1495 187.651 20.666 186.516 20.666C185.381 20.666 184.452 20.1495 184.452 19.633C184.452 19.0132 185.381 18.6 186.516 18.6C187.651 18.6 188.579 19.0132 188.579 19.633ZM321.05 19.4264C321.359 19.9429 320.637 22.0088 319.605 24.0748C317.129 28.7232 317.026 29.7562 319.296 32.2353C321.669 34.9211 325.383 34.6112 327.446 31.4089C329.097 28.9298 329.097 28.7232 326.93 25.8309C325.795 24.1781 324.764 21.9055 324.764 20.666C324.764 19.0132 325.383 18.6 328.375 18.6H331.986V27.8968V37.1936H324.248H316.51V27.8968C316.51 19.4264 316.716 18.6 318.47 18.6C319.605 18.6 320.74 19.0132 321.05 19.4264ZM261.83 23.3517C261.83 25.8309 261.417 26.8638 260.592 26.6572C258.116 25.8309 258.322 19.633 260.798 19.633C261.314 19.633 261.83 21.2858 261.83 23.3517ZM336.525 24.3847C336.216 30.8924 335.081 31.4089 335.081 25.0045C335.081 22.0088 335.493 19.633 335.906 19.633C336.319 19.633 336.628 21.8022 336.525 24.3847ZM256.671 23.3517C256.671 25.1078 254.402 24.7979 253.783 22.9385C253.576 22.2154 254.092 21.6989 255.021 21.6989C255.949 21.6989 256.671 22.422 256.671 23.3517ZM195.801 24.2814C195.801 25.521 193.944 25.8309 185.484 25.8309C177.024 25.8309 175.167 25.521 175.167 24.2814C175.167 23.0418 177.024 22.7319 185.484 22.7319C193.944 22.7319 195.801 23.0418 195.801 24.2814ZM65.8069 26.8638C71.6876 32.7518 68.1798 43.4948 60.4421 43.3915L57.0375 43.2882L60.6484 41.5321C66.7354 38.5365 67.5608 30.7892 62.0928 27.277C60.0294 25.8309 59.1009 25.7276 56.8311 26.7605C54.4582 27.8968 54.2519 27.7935 55.4899 26.4506C57.347 24.0748 63.3308 24.3847 65.8069 26.8638ZM326.208 27.5869C327.137 29.8595 324.867 32.2353 322.288 31.8221C319.605 31.4089 318.883 27.8968 321.153 26.244C323.216 24.6946 325.383 25.3144 326.208 27.5869ZM63.7435 31.3056C65.0847 33.7848 65.0847 34.4046 63.7435 36.8837C62.9182 38.3299 61.4738 39.776 60.6484 40.086C59.7199 40.3958 59.8231 39.9827 61.0611 39.053C62.2991 38.02 63.0213 36.2639 63.0213 34.0947C63.0213 31.9254 62.2991 30.1694 61.0611 29.1364C59.8231 28.2067 59.7199 27.7935 60.6484 28.1034C61.4738 28.4133 62.9182 29.8595 63.7435 31.3056ZM197.658 29.1364C197.349 30.0661 193.738 30.5826 185.69 30.7892C175.889 30.9957 174.135 30.7892 174.135 29.4463C174.135 28.1034 175.993 27.8968 186.103 27.8968C195.182 27.8968 197.968 28.2067 197.658 29.1364ZM61.1643 34.0947C61.1643 37.4002 60.9579 37.7101 58.0692 37.7101C55.5931 37.7101 54.8709 37.1936 54.6646 35.3342C54.0455 31.4089 55.1804 29.7562 58.2755 30.1694C60.8548 30.4792 61.1643 30.8924 61.1643 34.0947ZM228.816 30.9957C228.816 31.5122 228.403 32.0287 227.784 32.0287C227.268 32.0287 226.752 31.5122 226.752 30.9957C226.752 30.376 227.268 29.9628 227.784 29.9628C228.403 29.9628 228.816 30.376 228.816 30.9957ZM218.602 36.3672C218.189 39.9827 217.983 40.2925 217.673 37.9167C217.364 35.231 217.983 32.0287 218.705 32.0287C218.911 32.0287 218.808 33.9914 218.602 36.3672ZM213.546 37.4002C213.753 41.1189 214.269 41.9453 216.229 42.1519C218.292 42.4618 218.499 43.0816 218.499 49.1761V55.7872H201.888C185.69 55.7872 185.175 55.6839 182.183 53.2048C178.675 50.2091 173.723 49.7959 170.215 52.2751L167.945 53.8246V43.4948V33.0617H190.539H213.237L213.546 37.4002ZM216.126 38.4332C215.919 39.776 215.713 38.9497 215.713 36.6771C215.61 34.4046 215.816 33.3716 216.126 34.3013C216.332 35.3342 216.332 37.1936 216.126 38.4332ZM222.11 36.3672C222.006 38.2266 221.49 39.6728 220.975 39.5695C218.911 39.1563 219.324 33.0617 221.49 33.0617C222.006 33.0617 222.316 34.6112 222.11 36.3672ZM224.379 37.9167C224.07 38.9497 223.863 38.3299 223.863 36.6771C223.863 34.9211 224.07 34.198 224.379 34.8178C224.586 35.5408 224.586 36.987 224.379 37.9167ZM228.816 37.1936C228.816 37.7101 228.403 38.2266 227.784 38.2266C227.268 38.2266 226.752 37.7101 226.752 37.1936C226.752 36.5738 227.268 36.1606 227.784 36.1606C228.403 36.1606 228.816 36.5738 228.816 37.1936ZM221.594 48.5564C221.594 51.9652 221.181 54.7542 220.562 54.7542C219.943 54.7542 219.53 51.9652 219.53 48.5564C219.53 45.1475 219.943 42.3585 220.562 42.3585C221.181 42.3585 221.594 45.1475 221.594 48.5564ZM228.816 43.3915C228.816 43.908 228.403 44.4245 227.784 44.4245C227.268 44.4245 226.752 43.908 226.752 43.3915C226.752 42.7717 227.268 42.3585 227.784 42.3585C228.403 42.3585 228.816 42.7717 228.816 43.3915ZM311.867 45.8706C311.867 45.8706 311.764 49.5893 311.558 54.0311L311.145 61.9851L292.471 61.7785L273.695 61.4686L273.901 53.2048C274.004 48.6597 274.21 44.7343 274.21 44.5278C274.21 44.2178 311.867 45.5607 311.867 45.8706ZM116.36 51.1388C116.36 51.9652 116.979 52.6883 117.805 52.6883C118.63 52.6883 119.559 53.4114 119.868 54.4443C120.487 55.8905 122.447 55.9938 140.089 55.374C157.319 54.7542 159.692 54.8575 159.692 56.3037C159.692 57.6466 155.978 57.8532 130.082 57.7499C100.782 57.7499 89.8455 57.0268 92.3216 55.4773C93.3533 54.8575 112.852 50.0025 115.638 49.6926C116.051 49.5893 116.36 50.3124 116.36 51.1388ZM238.101 52.6883C236.037 54.0311 223.657 54.0311 223.657 52.6883C223.657 52.0685 226.958 51.6553 231.704 51.6553C237.172 51.6553 239.133 51.9652 238.101 52.6883ZM180.532 54.4443C183.111 57.44 183.524 59.9191 181.873 62.9147C179.5 67.6664 174.961 68.4928 171.247 65.084C168.564 62.5016 168.255 57.2334 170.731 54.5476C172.897 52.1718 178.469 52.0685 180.532 54.4443ZM247.386 54.7542C247.386 56.5103 246.664 56.8202 242.228 56.8202C236.141 56.8202 235.522 55.374 240.99 53.9278C246.664 52.3784 247.386 52.4817 247.386 54.7542ZM235.006 62.5016V69.2159H230.363H225.72V62.5016V55.7872H230.363H235.006V62.5016ZM166.914 59.4026C166.914 61.4686 166.398 61.9851 164.334 61.9851C162.271 61.9851 161.755 61.4686 161.755 59.4026C161.755 57.3367 162.271 56.8202 164.334 56.8202C166.398 56.8202 166.914 57.3367 166.914 59.4026ZM217.467 60.6422C217.467 63.2246 217.364 63.3279 212.102 62.6049C209.11 62.295 201.682 61.9851 195.595 61.9851C185.484 61.9851 184.452 61.7785 184.452 60.1257C184.452 59.0927 184.659 57.9565 184.865 57.7499C185.071 57.5433 192.5 57.44 201.372 57.6466L217.467 57.9565V60.6422ZM223.657 79.0292C223.657 91.2183 223.451 101.238 223.244 101.238C223.038 101.238 222.11 101.548 221.181 101.858C219.737 102.374 219.53 100.102 219.53 80.2688C219.53 58.1631 219.633 57.2334 222.935 56.9235C223.348 56.8202 223.657 66.8401 223.657 79.0292ZM64.5689 60.5389L79.219 61.1587V85.3304C79.219 107.643 79.1159 109.502 77.4651 109.502C76.4334 109.502 66.1164 108.779 54.4582 107.953C42.8 107.126 33.102 106.403 32.8957 106.403C31.5545 106.403 34.0305 95.8667 35.7844 94.1107C39.7049 90.1854 34.4432 84.2974 30.1101 87.8095C28.253 89.4623 28.253 93.3876 30.1101 94.9371C31.1418 95.8667 31.245 97.2096 30.4196 101.238C29.5942 105.68 29.0784 106.403 27.015 106.403H24.5389V82.8512V59.4026L37.1256 59.7125C44.1412 59.8158 56.4184 60.229 64.5689 60.5389ZM150.2 59.5059C156.803 60.0224 159.692 60.6422 159.692 61.5719C159.692 62.5016 157.009 62.7082 148.137 62.3983C141.74 62.1917 126.368 61.6752 114.09 61.3653C101.71 61.0554 91.5994 60.3323 91.5994 59.8158C91.5994 58.7828 136.169 58.5762 150.2 59.5059ZM272.147 61.1587C272.147 63.2246 271.941 63.3279 262.139 62.7082C256.568 62.295 248.624 61.9851 244.601 61.9851C238.617 61.9851 237.069 61.6752 237.069 60.4356C237.069 59.0927 239.752 58.8861 254.608 58.8861C271.837 58.8861 272.147 58.8861 272.147 61.1587ZM334.049 62.5016C334.049 63.7411 332.295 64.051 324.042 64.051C314.963 63.9477 314.137 63.8444 315.891 62.5016C318.78 60.3323 334.049 60.3323 334.049 62.5016ZM97.3769 65.2906C96.5516 66.6335 95.4167 69.6291 94.6945 72.005C93.5597 76.4468 93.5597 76.4468 88.917 76.4468H84.1712L84.8934 72.5214C85.3061 70.4555 86.3378 67.4599 87.2663 65.8071C88.7107 63.4312 89.6392 63.0181 93.8692 63.0181C98.8213 63.0181 98.8213 63.0181 97.3769 65.2906ZM138.335 64.051H152.47V68.1829V72.4182L145.557 71.9017C141.637 71.5918 130.288 71.0753 120.281 70.6621L101.916 70.0423V66.4269V62.8114L113.059 63.3279C119.146 63.7411 130.495 63.9477 138.335 64.051ZM169.493 66.117C173.207 69.5258 177.437 69.8357 181.048 66.7368C184.143 64.1543 184.762 64.051 196.936 64.051C203.952 64.051 211.483 64.3609 213.65 64.6708L217.467 65.3939V84.504V103.614L200.237 102.788C190.643 102.374 178.262 101.755 172.588 101.342L162.271 100.722L161.961 82.3347L161.755 64.051H164.541C166.088 64.051 168.255 64.9807 169.493 66.117ZM304.955 65.7038C326.311 66.2203 333.017 66.7368 333.017 67.6664C333.017 68.3895 332.398 69.2159 331.573 69.5258C330.644 69.939 239.545 67.6664 237.379 67.2533C237.172 67.15 237.069 66.4269 237.069 65.4972C237.069 63.9477 238.926 63.8444 256.981 64.4642C267.814 64.7741 289.48 65.3939 304.955 65.7038ZM160.723 72.8313V80.5787H157.628H154.533V72.8313V65.084H157.628H160.723V72.8313ZM99.4403 69.939C98.3055 71.0753 97.4801 69.3192 98.3055 67.4599C99.1308 65.7038 99.1308 65.7038 99.5435 67.4599C99.853 68.4928 99.7499 69.6291 99.4403 69.939ZM299.281 71.1786C316.201 71.6951 330.335 72.3148 330.644 72.728C331.057 73.0379 330.954 73.6577 330.541 74.0709C328.891 75.7237 225.72 73.8643 225.72 72.2115C225.72 71.6951 227.99 71.2819 230.776 71.2819C233.665 71.2819 236.244 70.7654 236.553 70.2489C236.966 69.5258 242.64 69.4225 252.854 69.7324C261.52 70.1456 282.361 70.7654 299.281 71.1786ZM139.367 72.9346C151.335 73.5544 152.47 73.761 152.47 75.5171C152.47 77.1698 151.644 77.4797 147.621 77.4797C138.748 77.4797 96.4484 75.4138 96.0357 75.1039C95.8294 74.8973 96.0357 73.8643 96.3452 72.8313C97.0674 70.972 96.0357 70.972 139.367 72.9346ZM334.152 80.4754C332.501 82.1281 331.986 83.9875 331.986 87.6029C331.986 93.181 332.708 94.5239 334.771 92.8711C335.906 91.8381 336.112 93.6975 336.112 103.407C336.009 114.357 335.906 115.39 333.533 118.282L330.954 121.381V99.4822C330.954 77.9962 330.954 77.583 333.327 75.9303C335.493 74.3808 335.597 74.4841 335.906 76.3435C336.112 77.4797 335.287 79.3391 334.152 80.4754ZM292.575 80.1655C317.748 80.7853 320.74 80.9919 320.431 82.5413C320.018 84.2974 321.153 84.2974 253.576 82.7479C227.887 82.1281 226.236 82.0248 225.927 80.1655C225.514 78.3061 226.339 78.3061 245.013 78.9259C255.64 79.2358 277.099 79.8556 292.575 80.1655ZM328.891 100.825C328.891 120.761 328.684 123.034 327.24 122.518C326.311 122.208 324.97 121.898 324.145 121.898C322.907 121.898 322.7 118.282 322.7 100.205V78.5127H325.795H328.891V100.825ZM92.9406 85.4337C92.2184 85.6403 90.9804 85.6403 90.3614 85.4337C89.6392 85.1238 90.155 84.9172 91.5994 84.9172C93.0438 84.9172 93.5597 85.1238 92.9406 85.4337ZM155.565 86.7765C158.763 87.293 147.827 87.3963 130.804 87.0864C114.09 86.7765 99.234 86.0535 97.7896 85.6403C94.4882 84.6073 147.93 85.6403 155.565 86.7765ZM33.4115 92.7678C31.6576 94.5239 29.6974 93.5942 29.6974 90.9084C29.6974 88.326 31.9671 87.6029 33.6179 89.6689C34.6496 91.0117 34.6496 91.6315 33.4115 92.7678ZM287.622 93.3876C308.257 94.1107 320.018 94.9371 319.812 95.5568C319.708 96.1766 316.923 96.4865 313.621 96.3832C310.423 96.2799 293.606 95.6601 276.274 95.0404C236.244 93.6975 225.72 92.9744 225.72 91.8381C225.72 91.2183 231.498 91.115 240.474 91.5282C248.521 91.8381 269.774 92.6645 287.622 93.3876ZM92.9406 96.7964C92.2184 97.003 90.9804 97.003 90.3614 96.7964C89.6392 96.4865 90.155 96.2799 91.5994 96.2799C93.0438 96.2799 93.5597 96.4865 92.9406 96.7964ZM130.804 97.2096C146.589 97.8294 159.588 98.8624 160.207 99.3789C160.93 100.102 158.247 100.205 152.47 99.7921C147.621 99.4822 134.209 98.8624 122.654 98.5525C111.099 98.1393 100.266 97.5195 98.4086 97.1063L95.2104 96.2799L98.8213 96.1766C100.782 96.0733 115.225 96.5898 130.804 97.2096ZM230.879 105.473C230.879 108.262 230.569 108.572 228.093 108.262C225.824 108.056 225.101 107.333 224.895 105.06C224.586 102.581 224.895 102.271 227.681 102.271C230.569 102.271 230.879 102.581 230.879 105.473ZM132.352 105.887C149.375 106.713 166.81 107.643 171.04 107.953C175.27 108.262 201.579 109.605 229.331 111.052C257.187 112.394 282.877 113.841 286.591 114.047C290.305 114.357 299.487 114.874 307.018 115.287C317.542 115.803 320.637 116.32 320.637 117.353C320.637 118.386 319.193 118.799 315.891 118.799C310.939 118.799 141.946 110.019 129.256 109.089C125.336 108.779 114.71 108.262 105.837 107.849C89.536 107.126 86.6473 106.61 87.8853 104.44C88.4012 103.614 90.8772 103.407 95.004 103.821C98.5118 104.131 115.329 105.06 132.352 105.887ZM282.98 105.473C302.273 106.093 318.677 106.713 319.399 107.023C324.557 108.676 315.066 108.779 282.258 107.643C240.577 106.197 233.974 105.68 233.974 104.131C233.974 103.511 236.45 103.304 240.99 103.717C244.807 104.027 263.687 104.854 282.98 105.473ZM41.0461 113.117C147.002 120.142 251.926 126.959 260.798 127.269C266.369 127.579 266.473 127.579 266.266 124.687C266.163 122.311 266.473 121.898 268.742 121.898C274.314 121.898 328.478 125.1 329.716 125.513C330.335 125.72 330.954 127.579 330.954 129.645C330.954 133.054 331.16 133.261 334.358 133.261H337.66L337.35 177.369C337.144 201.644 336.835 221.683 336.628 221.993C336.112 222.406 271.012 217.345 265.338 216.415L262.139 215.899L261.52 192.037C261.211 178.918 260.695 167.865 260.282 167.555C259.973 167.245 249.656 166.109 237.276 165.076C136.994 157.019 95.5199 153.92 94.6945 154.437C94.0755 154.85 93.6628 163.114 93.6628 175.716V196.375L88.8138 195.756C86.0282 195.342 80.1476 194.723 75.6081 194.206L67.3545 193.38L74.5764 193.483L81.7983 193.69L82.1078 185.632C82.3141 179.848 82.0046 177.575 81.0761 177.265C80.3539 176.955 75.1954 176.542 69.7274 176.232L59.6167 175.613V183.876V192.14L63.0213 192.244C64.7752 192.244 65.8069 192.553 65.0847 192.76C64.053 193.277 28.253 190.074 15.0473 188.422L10.0951 187.698V149.685V111.568H14.0156C16.079 111.568 28.253 112.291 41.0461 113.117ZM358.603 116.733C360.357 116.733 361.905 117.146 361.905 117.766C361.905 118.386 358.294 118.799 353.135 118.799C345.501 118.799 344.263 119.005 343.334 120.865C342.715 122.001 341.271 122.931 340.033 122.931C338.795 122.931 336.731 123.964 335.39 125.203L333.017 127.373V124.48C333.017 122.621 334.152 120.348 335.906 118.489C338.692 115.493 338.795 115.493 346.945 116.113C351.485 116.423 356.746 116.733 358.603 116.733ZM344.882 144.83L341.271 150.305V176.336C341.271 191.52 341.684 202.47 342.199 202.47C342.715 202.47 344.263 200.714 345.604 198.545C347.667 195.136 347.977 195.033 348.286 196.995C348.699 199.474 345.914 205.569 344.366 205.569C343.747 205.569 343.334 207.325 343.334 209.391C343.334 211.56 342.509 214.349 341.477 215.589C339.827 217.861 339.723 215.899 340.033 174.89L340.446 131.814L344.16 127.166L347.977 122.621L348.286 130.988C348.596 139.148 348.493 139.562 344.882 144.83ZM358.81 128.612C358.81 133.88 357.778 135.74 356.231 133.261C355.921 132.641 354.27 132.228 352.516 132.228C349.628 132.228 349.525 132.021 349.525 127.579V122.931H354.167H358.81V128.612ZM341.787 127.063C339.001 129.955 335.081 131.298 335.081 129.335C335.081 127.786 338.588 125.203 341.271 124.687C342.715 124.48 344.056 124.17 344.263 124.067C344.572 124.067 343.437 125.307 341.787 127.063ZM106.043 168.382V179.641L103.258 179.538C101.607 179.435 99.5435 179.745 98.615 180.158C96.8611 180.984 96.7579 180.054 96.7579 169.002V157.019H101.401H106.043V168.382ZM185.175 177.472L238.926 182.43L243.672 186.769C247.799 190.591 248.108 191.107 246.045 191.107C244.704 191.107 216.332 188.835 182.802 185.942C149.375 183.153 121.312 180.777 120.487 180.777C119.559 180.674 120.9 178.918 123.582 176.646C126.161 174.373 128.947 172.514 129.772 172.514C130.598 172.617 155.565 174.786 185.175 177.472ZM63.9499 182.534L64.2594 187.492L72.3066 188.422C77.7746 189.041 80.2507 189.764 80.2507 190.694C80.2507 192.14 79.4254 192.14 66.1164 190.487L61.6801 189.971V183.773C61.6801 176.542 63.5372 175.509 63.9499 182.534ZM178.262 187.492C216.538 190.694 249.037 193.483 250.378 193.793C252.132 194.206 252.545 194.619 251.719 195.446C250.584 196.582 217.776 194 128.844 185.839C116.67 184.806 105.012 183.876 102.742 183.876C100.575 183.876 98.8213 183.463 98.8213 182.947C98.8213 181.397 101.091 180.881 105.012 181.294C106.972 181.501 139.986 184.29 178.262 187.492ZM102.948 190.074C104.083 190.178 103.98 190.487 102.432 191.727C97.5833 195.549 96.7579 195.549 96.7579 192.037C96.7579 189.145 97.0674 188.835 99.1308 189.455C100.369 189.764 102.123 190.074 102.948 190.074Z" fill="#141511" fill-opacity="0.2"/>
<path d="M86.6465 80.785C84.2736 83.1609 85.8211 90.9082 88.7099 90.9082C89.3289 90.9082 89.1226 90.0818 88.1941 89.0488C87.1624 88.0159 86.4402 86.2598 86.4402 85.2268C86.4402 84.1938 87.1624 82.4378 88.1941 81.4048C90.0511 79.3389 88.6067 78.8224 86.6465 80.785Z" fill="#141511" fill-opacity="0.2"/>
<path d="M37.4344 8.99348C36.2995 11.1627 35.2678 13.2287 35.0615 13.6419C34.8551 14.1584 43.0055 14.4683 53.1162 14.4683H71.4805L73.8534 10.3364C75.0914 8.1671 76.1231 6.10114 76.1231 5.79125C76.1231 5.37806 67.8695 5.17146 57.7589 5.17146H39.3946L37.4344 8.99348ZM74.0597 6.82423C74.0597 7.13412 73.2344 8.78689 72.3058 10.4396L70.5519 13.4353H53.7352C44.4499 13.4353 36.9185 13.2287 36.9185 12.9188C36.9185 12.5056 37.6407 10.9561 38.4661 9.30337L40.1168 6.20444H57.0367C66.4251 6.20444 74.0597 6.51433 74.0597 6.82423Z" fill="#141511" fill-opacity="0.2"/>
<path d="M40.4266 8.78656C40.0139 9.71624 40.2203 10.9558 40.8393 11.5756C42.3868 13.1251 45.3788 11.6789 44.9661 9.61295C44.5534 7.2371 41.252 6.61731 40.4266 8.78656Z" fill="#141511" fill-opacity="0.2"/>
<path d="M46.617 8.78656C46.2044 9.71624 46.4107 10.9558 47.0297 11.5756C48.5773 13.1251 51.5692 11.6789 51.1565 9.61295C50.7438 7.2371 47.4424 6.61731 46.617 8.78656Z" fill="#141511" fill-opacity="0.2"/>
<path d="M57.9657 8.78656C57.553 9.71624 57.7593 10.9558 58.3784 11.5756C59.9259 13.1251 62.9178 11.6789 62.5052 9.61295C62.0925 7.2371 58.791 6.61731 57.9657 8.78656Z" fill="#141511" fill-opacity="0.2"/>
<path d="M64.0533 8.8898C63.7438 9.71618 63.9502 10.9558 64.5692 11.5755C66.2199 13.2283 68.9023 11.7821 68.9023 9.30299C68.9023 6.82384 64.9819 6.41065 64.0533 8.8898Z" fill="#141511" fill-opacity="0.2"/>
<path d="M110.891 13.1251C109.447 14.468 110.272 16.5339 112.233 16.5339C113.574 16.5339 114.296 15.8109 114.296 14.468C114.296 12.5053 112.233 11.6789 110.891 13.1251ZM113.264 14.468C113.264 14.9845 112.852 15.501 112.233 15.501C111.717 15.501 111.201 14.9845 111.201 14.468C111.201 13.8482 111.717 13.435 112.233 13.435C112.852 13.435 113.264 13.8482 113.264 14.468Z" fill="#141511" fill-opacity="0.2"/>
<path d="M124.613 16.9471C123.066 21.6988 124.51 27.3801 127.193 27.3801C129.978 27.3801 131.423 22.7317 130.184 17.8767C128.946 12.6085 126.264 12.1954 124.613 16.9471Z" fill="#141511" fill-opacity="0.2"/>
<path d="M79.8386 21.2857C79.426 22.7319 79.426 24.7978 79.7355 25.7275C80.045 26.7605 79.3228 28.7231 78.1879 30.2726C75.7118 33.3715 75.5055 36.4705 77.7752 38.6397C82.4179 43.2881 88.1954 35.7474 83.7591 30.8924C82.4179 29.4462 82.3147 28.2066 83.1401 24.3846C83.6559 21.8022 83.8623 19.4263 83.5528 19.1164C82.2116 17.7736 80.4577 18.8066 79.8386 21.2857ZM81.7989 35.1276C81.7989 36.7804 81.1799 37.8133 79.9418 38.0199C77.9816 38.4331 76.6404 35.954 77.5689 33.4748C78.4974 30.8924 81.7989 32.132 81.7989 35.1276Z" fill="#141511" fill-opacity="0.2"/>
<path d="M41.2527 30.1692C39.2925 32.1319 39.8083 35.8506 42.2844 37.6067C44.2447 38.9496 44.8637 39.0529 46.7207 37.8133C49.1968 36.1605 49.919 32.5451 48.2683 30.3758C46.7207 28.6198 42.9034 28.5165 41.2527 30.1692ZM46.2049 33.4748C46.2049 35.3341 44.0383 37.0902 42.4908 36.4704C40.7369 35.8506 40.6337 31.3055 42.3876 30.6857C43.9351 30.1692 46.2049 31.822 46.2049 33.4748Z" fill="#141511" fill-opacity="0.2"/>
<path d="M274.21 27.38C272.25 29.7559 273.385 32.5449 276.274 32.5449C278.234 32.5449 278.956 31.9251 279.162 30.0658C279.678 26.4504 276.48 24.591 274.21 27.38ZM277.512 29.446C277.512 29.9625 276.996 30.5823 276.377 30.7889C275.758 30.9955 275.242 30.3757 275.242 29.446C275.242 28.5163 275.758 27.8965 276.377 28.1031C276.996 28.3097 277.512 28.9295 277.512 29.446Z" fill="#141511" fill-opacity="0.2"/>
<path d="M171.763 55.5806C168.358 59.2993 170.421 65.084 174.961 65.084C178.572 65.084 180.326 63.3279 180.326 59.8158C180.326 54.4443 175.064 51.8619 171.763 55.5806ZM178.056 55.9938C178.778 56.7169 179.294 58.163 179.294 59.4026C179.294 63.8444 174.135 65.8071 172.072 62.0883C170.628 59.2993 170.731 58.2663 172.691 56.407C174.651 54.4443 176.405 54.341 178.056 55.9938Z" fill="#141511" fill-opacity="0.2"/>
<path d="M220.562 75.4135C220.562 76.5498 221.077 77.4795 221.593 77.4795C222.212 77.4795 222.625 76.5498 222.625 75.4135C222.625 74.2773 222.212 73.3476 221.593 73.3476C221.077 73.3476 220.562 74.2773 220.562 75.4135Z" fill="#141511" fill-opacity="0.2"/>
<path d="M32.7926 68.0793C32.7926 71.2816 32.2768 73.5541 31.2451 74.3805C27.7373 77.2728 29.9039 81.6113 34.9592 81.6113C37.7448 81.6113 38.8797 76.5497 36.4036 74.7937C34.7529 73.5541 34.6497 72.7277 35.5782 68.1826C36.5067 63.4309 36.5067 63.0177 34.7529 63.0177C33.1021 63.0177 32.7926 63.8441 32.7926 68.0793ZM34.5465 77.0662C35.3719 79.2355 33.2053 81.4047 31.6578 79.8553C30.3165 78.5124 31.1419 75.4135 32.7926 75.4135C33.4116 75.4135 34.1338 76.1365 34.5465 77.0662Z" fill="#141511" fill-opacity="0.2"/>
<path d="M45.1738 63.9476C45.1738 64.4641 45.896 66.6333 46.8245 68.8026C48.0626 71.7982 48.1658 73.2444 47.3404 74.5873C44.658 78.9258 47.7531 83.5742 52.3957 82.128C55.8003 81.095 56.1098 77.3763 53.1179 74.7939C51.5704 73.5543 50.126 71.1784 49.7133 69.5257C48.4753 63.741 48.0626 63.0179 46.6182 63.0179C45.7928 63.0179 45.1738 63.4311 45.1738 63.9476ZM51.7767 77.0664C52.4989 79.0291 51.6735 80.5785 49.8165 80.5785C47.9594 80.5785 46.9277 78.8225 47.6499 76.9631C48.3721 74.8972 50.9513 75.0005 51.7767 77.0664Z" fill="#141511" fill-opacity="0.2"/>
<path d="M70.4502 64.3608C70.2438 64.9806 69.8311 67.3565 69.5216 69.629C69.2121 72.0049 68.1804 74.1741 66.8392 75.1038C63.1251 77.6862 64.879 82.6445 69.4185 82.6445C73.6484 82.6445 75.4023 78.6159 72.5136 75.4137C71.2755 73.9675 71.2755 73.1411 72.5136 69.0092C73.7516 64.8773 73.7516 64.1542 72.4104 63.6377C71.585 63.3279 70.7597 63.6377 70.4502 64.3608ZM70.7597 77.8928C71.3787 80.8885 69.2121 82.3346 67.1487 80.372C65.7043 78.9258 65.7043 78.306 66.8392 76.9632C68.4899 75.0005 70.347 75.4137 70.7597 77.8928Z" fill="#141511" fill-opacity="0.2"/>
<path d="M65.4976 89.6687C62.093 93.3874 64.1564 99.1721 68.7991 99.1721C74.0607 99.1721 77.0527 92.9743 73.4417 89.4621C71.2751 87.2929 67.561 87.3962 65.4976 89.6687ZM71.9973 94.1105C71.9973 97.5194 69.6244 99.0688 66.942 97.4161C62.9184 94.9369 65.8071 87.7061 70.0371 89.8753C71.2751 90.5984 71.9973 92.0446 71.9973 94.1105Z" fill="#141511" fill-opacity="0.2"/>
<path d="M195.801 66.117C185.484 67.8731 179.191 79.4424 182.802 89.8755C183.524 91.9414 183.421 92.2513 182.286 91.115C181.564 90.4953 179.81 89.8755 178.366 89.8755C176.302 89.8755 174.755 88.4293 171.66 84.1941C169.39 81.0952 167.223 78.5127 166.811 78.5127C166.501 78.5127 165.573 79.2358 164.85 80.0622C163.716 81.4051 164.335 82.438 168.358 86.7765C171.247 89.7722 173.104 92.8711 173.104 94.3173C173.104 97.4162 174.961 99.1723 178.263 99.1723C181.461 99.1723 183.421 97.4162 183.421 94.7305C183.421 93.0777 184.04 93.2843 187.548 96.4865C192.294 100.722 195.182 101.651 201.682 100.928C210.452 99.9987 215.61 94.1107 216.229 84.4007C216.539 79.0292 216.229 77.4797 214.166 74.4841C209.626 67.7698 203.127 64.8774 195.801 66.117ZM205.19 73.3478L207.666 75.3105L203.436 75.2072C201.166 75.1039 198.69 75.4138 198.071 75.827C197.452 76.2402 195.595 75.827 194.048 75.0006L191.159 73.4511L193.738 72.4181C197.865 70.7654 202.611 71.0753 205.19 73.3478ZM191.468 81.1985C192.706 81.6117 193.738 82.6446 193.738 83.6776C193.738 84.6073 194.667 86.6732 195.801 88.1194C197.452 90.1854 197.658 91.2183 196.833 93.3876C195.905 96.0733 195.698 96.0733 192.81 94.6272C189.611 92.8711 186.516 87.3963 186.516 83.2644C186.516 80.4754 187.341 80.1655 191.468 81.1985ZM211.277 84.1941C211.277 88.9458 206.944 95.0404 203.539 95.0404C202.301 95.0404 204.365 90.392 206.222 89.0491C207.15 88.4293 208.285 86.3633 208.698 84.7106C209.523 80.8886 211.277 80.5787 211.277 84.1941ZM178.985 93.5942C179.81 95.7634 177.644 97.9327 176.096 96.3832C174.755 95.0404 175.58 91.9414 177.231 91.9414C177.85 91.9414 178.572 92.6645 178.985 93.5942Z" fill="#141511" fill-opacity="0.2"/>
<path d="M324.454 82.2311C323.629 83.0574 324.557 84.7102 325.899 84.7102C326.414 84.7102 326.827 83.9871 326.827 83.1607C326.827 81.6113 325.589 81.0948 324.454 82.2311Z" fill="#141511" fill-opacity="0.2"/>
<path d="M324.454 117.353C323.629 118.179 324.557 119.832 325.899 119.832C326.414 119.832 326.827 119.109 326.827 118.282C326.827 116.733 325.589 116.216 324.454 117.353Z" fill="#141511" fill-opacity="0.2"/>
<path d="M20.4121 179.538V187.802L29.4911 188.525C34.4432 188.835 39.3954 189.248 40.5303 189.351C42.3873 189.558 42.5937 188.835 42.9032 180.984L43.2127 172.514H37.7447C34.7527 172.41 29.5942 172.204 26.396 171.791L20.4121 171.274V179.538ZM24.5389 178.608V183.67L32.7925 184.393C38.2605 184.909 41.0461 185.529 40.7366 186.252C40.3239 187.492 35.6813 187.492 26.396 186.356L21.4438 185.736V179.641C21.4438 174.889 21.7533 173.547 22.9914 173.547C24.1262 173.547 24.5389 174.786 24.5389 178.608Z" fill="#141511" fill-opacity="0.2"/>
<path d="M285.559 207.531V216.725L291.027 217.345C293.915 217.655 300.002 218.171 304.439 218.584L312.383 219.204V209.494V199.681L305.47 199.061C301.55 198.648 295.566 198.338 292.058 198.338H285.559V207.531ZM290.717 206.085C290.717 210.011 291.13 211.973 292.161 212.386C292.884 212.696 297.32 213.213 301.963 213.626C306.605 214.039 310.319 214.762 310.319 215.382C310.216 216.415 297.32 216.415 291.027 215.382L287.622 214.762V207.635C287.622 201.85 287.932 200.404 289.17 200.404C290.408 200.404 290.717 201.747 290.717 206.085Z" fill="#141511" fill-opacity="0.2"/>
</svg>
