<svg width="103" height="125" viewBox="0 0 103 125" fill="none" xmlns="http://www.w3.org/2000/svg">
<path d="M89.7468 0H73.482C56.4288 0.0191273 40.0795 6.80965 28.021 18.8818C15.9626 30.9539 9.17975 47.3217 9.16064 64.3943V80.6776C9.16447 84.1953 10.562 87.5678 13.0466 90.0553C15.5312 92.5427 18.8999 93.9418 22.4136 93.9456H38.6785C55.7317 93.9265 72.081 87.1359 84.1394 75.0638C96.1979 62.9917 102.981 46.6239 103 29.5513V13.268C102.996 9.75029 101.598 6.37774 99.1139 3.89034C96.6293 1.40293 93.2606 0.00382569 89.7468 0ZM99.3906 29.5513C99.3725 45.6658 92.9702 61.1152 81.5884 72.5099C70.2066 83.9046 54.7748 90.3141 38.6785 90.3323H22.4136C19.8568 90.3294 17.4055 89.3113 15.5976 87.5013C13.7897 85.6913 12.7727 83.2373 12.7698 80.6776V64.3943C12.788 48.2797 19.1903 32.8304 30.5721 21.4357C41.9539 10.041 57.3857 3.63146 73.482 3.61329H89.7468C92.3036 3.61616 94.7549 4.63427 96.5629 6.44426C98.3708 8.25425 99.3878 10.7083 99.3906 13.268V29.5513Z" fill="#CDEB69"/>
<path d="M5.14353 106.977H12.8588C13.545 106.977 14.1965 107.11 14.8136 107.377C15.4306 107.643 15.9711 108.007 16.4351 108.472C16.8975 108.935 17.2702 109.479 17.5532 110.105C17.8362 110.733 17.9859 111.407 18.0024 112.126H15.4306C15.4306 111.407 15.1821 110.798 14.6852 110.3C14.1883 109.801 13.5795 109.552 12.8588 109.552H5.14353C4.42449 109.552 3.81652 109.801 3.3196 110.3C2.82105 110.798 2.57177 111.407 2.57177 112.126V119.85C2.57177 120.572 2.82105 121.181 3.3196 121.679C3.81652 122.176 4.42449 122.425 5.14353 122.425H12.8588C13.5795 122.425 14.1883 122.176 14.6852 121.679C15.1821 121.181 15.4306 120.572 15.4306 119.85H18.0024C18.0024 120.537 17.8699 121.19 17.605 121.807C17.3384 122.425 16.974 122.97 16.5116 123.443C16.0493 123.914 15.5046 124.292 14.8777 124.575C14.2525 124.858 13.5795 125 12.8588 125H5.14353C4.45905 125 3.80335 124.867 3.17645 124.602C2.5512 124.335 2.00246 123.97 1.53023 123.507C1.05964 123.045 0.686959 122.499 0.412177 121.872C0.137395 121.246 0 120.572 0 119.85V112.126C0 111.441 0.13328 110.789 0.399836 110.169C0.664746 109.552 1.0292 109.011 1.4932 108.549C1.95556 108.086 2.49937 107.713 3.12462 107.429C3.75152 107.146 4.42449 106.995 5.14353 106.977Z" fill="#CDEB69"/>
<path d="M20.0562 125V106.977H22.6279V125H20.0562Z" fill="#CDEB69"/>
<path d="M41.9257 109.552H34.2104V125H31.6386V109.552H23.9233V106.977H41.9257V109.552Z" fill="#CDEB69"/>
<path d="M58.6352 114.701V112.126C58.6352 111.407 58.3867 110.798 57.8898 110.3C57.3929 109.801 56.7841 109.552 56.0634 109.552H45.7764V117.276H56.0634C56.7841 117.276 57.3929 117.027 57.8898 116.53C58.3867 116.032 58.6352 115.423 58.6352 114.701ZM61.207 125H59.3806L54.237 119.85H45.7764V125H43.2046V106.977H56.0634C56.7315 106.977 57.3789 107.11 58.0058 107.377C58.6311 107.643 59.1798 108.007 59.652 108.472C60.1226 108.935 60.4994 109.479 60.7824 110.105C61.0654 110.733 61.207 111.407 61.207 112.126V114.701C61.207 115.251 61.1214 115.779 60.9503 116.285C60.7791 116.792 60.5348 117.26 60.2172 117.688C59.8997 118.118 59.5221 118.501 59.0844 118.835C58.6483 119.169 58.1646 119.422 57.6331 119.593L61.207 123.174V125Z" fill="#CDEB69"/>
<path d="M78.9531 119.85V106.977H81.5248V119.85C81.5248 120.537 81.3915 121.19 81.125 121.807C80.8601 122.425 80.4956 122.97 80.0316 123.443C79.5693 123.914 79.0255 124.292 78.4002 124.575C77.7733 124.858 77.1003 125 76.3813 125H68.666C67.9799 125 67.3242 124.867 66.6989 124.602C66.072 124.335 65.5233 123.97 65.0527 123.507C64.5805 123.045 64.2078 122.499 63.9346 121.872C63.6599 121.246 63.5225 120.572 63.5225 119.85V106.977H66.0942V119.85C66.0942 120.572 66.3427 121.181 66.8396 121.679C67.3365 122.176 67.9453 122.425 68.666 122.425H76.3813C77.1003 122.425 77.7091 122.176 78.2077 121.679C78.7046 121.181 78.9531 120.572 78.9531 119.85Z" fill="#CDEB69"/>
<path d="M101.843 119.85C101.843 120.537 101.71 121.19 101.443 121.807C101.178 122.425 100.814 122.97 100.35 123.443C99.8876 123.914 99.3438 124.292 98.7186 124.575C98.0917 124.858 97.4187 125 96.6996 125H88.9844C88.2801 125 87.6195 124.867 87.0025 124.602C86.3854 124.335 85.8457 123.97 85.3834 123.507C84.9194 123.045 84.5508 122.499 84.2777 121.872C84.0029 121.246 83.8573 120.572 83.8408 119.85H86.4126C86.4126 120.572 86.661 121.181 87.158 121.679C87.6549 122.176 88.2637 122.425 88.9844 122.425H96.6996C97.4187 122.425 98.0267 122.176 98.5236 121.679C99.0221 121.181 99.2714 120.572 99.2714 119.85C99.2714 119.131 99.0221 118.522 98.5236 118.024C98.0267 117.525 97.4187 117.276 96.6996 117.276H88.9844C88.2982 117.276 87.6417 117.143 87.0148 116.878C86.3896 116.611 85.8416 116.246 85.371 115.783C84.8988 115.32 84.5253 114.775 84.2505 114.148C83.9774 113.522 83.8408 112.848 83.8408 112.126C83.8408 111.441 83.9733 110.789 84.2382 110.169C84.5047 109.552 84.8692 109.007 85.3316 108.536C85.7939 108.063 86.3385 107.685 86.9654 107.402C87.5907 107.119 88.2637 106.977 88.9844 106.977H96.6996C97.3841 106.977 98.0349 107.11 98.6519 107.377C99.2706 107.643 99.8111 108.007 100.273 108.472C100.736 108.935 101.109 109.479 101.392 110.105C101.675 110.733 101.825 111.407 101.843 112.126H99.2714C99.2714 111.407 99.0221 110.798 98.5236 110.3C98.0267 109.801 97.4187 109.552 96.6996 109.552H88.9844C88.2637 109.552 87.6549 109.801 87.158 110.3C86.661 110.798 86.4126 111.407 86.4126 112.126C86.4126 112.848 86.661 113.457 87.158 113.955C87.6549 114.452 88.2637 114.701 88.9844 114.701H96.6996C97.3677 114.701 98.0143 114.835 98.6396 115.101C99.2665 115.367 99.8152 115.731 100.286 116.196C100.758 116.659 101.136 117.203 101.419 117.829C101.702 118.457 101.843 119.131 101.843 119.85Z" fill="#CDEB69"/>
</svg>
