<svg width="213" height="265" viewBox="0 0 213 265" fill="none" xmlns="http://www.w3.org/2000/svg">
<g filter="url(#filter0_i_867_1399)">
<path d="M185.593 -0.000244141H151.958C116.693 0.0403055 82.8829 14.4361 57.9465 40.0288C33.01 65.6216 18.9834 100.321 18.9438 136.515V171.035C18.9518 178.493 21.8418 185.642 26.9798 190.916C32.1179 196.189 39.0843 199.155 46.3506 199.163H79.9857C115.251 199.122 149.061 184.727 173.997 159.134C198.934 133.541 212.961 98.8417 213 62.6481V28.1277C212.992 20.6702 210.102 13.5205 204.964 8.24721C199.826 2.97395 192.86 0.00786627 185.593 -0.000244141ZM205.536 62.6481C205.499 96.8107 192.259 129.563 168.722 153.72C145.185 177.876 113.272 191.464 79.9857 191.503H46.3506C41.0632 191.497 35.994 189.338 32.2553 185.501C28.5165 181.664 26.4135 176.462 26.4075 171.035V136.515C26.4451 102.352 39.6848 69.5998 63.2219 45.4431C86.7591 21.2865 118.672 7.6984 151.958 7.65988H185.593C190.881 7.66596 195.95 9.82435 199.689 13.6615C203.427 17.4986 205.53 22.7012 205.536 28.1277V62.6481Z" fill="#8CB600" fill-opacity="0.1"/>
<path d="M10.6367 226.792H26.5916C28.0105 226.792 29.358 227.074 30.6339 227.64C31.9099 228.202 33.0277 228.976 33.9873 229.961C34.9434 230.942 35.7141 232.096 36.2993 233.423C36.8846 234.754 37.1942 236.182 37.2283 237.708H31.9099C31.9099 236.182 31.3961 234.892 30.3685 233.837C29.3409 232.779 28.082 232.25 26.5916 232.25H10.6367C9.1497 232.25 7.89242 232.779 6.86483 233.837C5.83383 234.892 5.31833 236.182 5.31833 237.708V254.083C5.31833 255.613 5.83383 256.905 6.86483 257.959C7.89242 259.014 9.1497 259.541 10.6367 259.541H26.5916C28.082 259.541 29.3409 259.014 30.3685 257.959C31.3961 256.905 31.9099 255.613 31.9099 254.083H37.2283C37.2283 255.539 36.9543 256.922 36.4065 258.232C35.8553 259.541 35.1016 260.697 34.1455 261.699C33.1893 262.698 32.0631 263.498 30.7667 264.099C29.4737 264.699 28.082 265 26.5916 265H10.6367C9.22115 265 7.8652 264.718 6.5688 264.156C5.27579 263.59 4.14102 262.817 3.16446 261.836C2.1913 260.854 1.42061 259.698 0.852368 258.368C0.284127 257.041 0 255.613 0 254.083V237.708C0 236.255 0.275619 234.872 0.826846 233.559C1.37467 232.25 2.12835 231.104 3.0879 230.123C4.04404 229.142 5.16861 228.351 6.46161 227.75C7.75802 227.149 9.1497 226.83 10.6367 226.792Z" fill="#8CB600" fill-opacity="0.1"/>
<path d="M41.4746 265V226.792H46.7929V265H41.4746Z" fill="#8CB600" fill-opacity="0.1"/>
<path d="M86.7014 232.25H70.7464V265H65.4281V232.25H49.4731V226.792H86.7014V232.25Z" fill="#8CB600" fill-opacity="0.1"/>
<path d="M121.256 243.167V237.709C121.256 236.182 120.742 234.892 119.714 233.837C118.687 232.779 117.428 232.25 115.937 232.25H94.664V248.625H115.937C117.428 248.625 118.687 248.098 119.714 247.043C120.742 245.989 121.256 244.696 121.256 243.167ZM126.574 265H122.797L112.16 254.083H94.664V265H89.3457V226.792H115.937C117.319 226.792 118.658 227.075 119.954 227.641C121.247 228.203 122.382 228.976 123.358 229.961C124.332 230.942 125.111 232.097 125.696 233.424C126.281 234.754 126.574 236.182 126.574 237.709V243.167C126.574 244.333 126.397 245.452 126.043 246.525C125.689 247.6 125.184 248.592 124.527 249.5C123.871 250.411 123.09 251.222 122.185 251.931C121.283 252.639 120.282 253.175 119.183 253.539L126.574 261.129V265Z" fill="#8CB600" fill-opacity="0.1"/>
<path d="M163.272 254.083V226.792H168.59V254.083C168.59 255.54 168.314 256.923 167.763 258.232C167.215 259.542 166.462 260.698 165.502 261.7C164.546 262.699 163.421 263.498 162.128 264.099C160.832 264.7 159.44 265 157.953 265H141.998C140.58 265 139.224 264.719 137.931 264.157C136.634 263.591 135.499 262.817 134.526 261.836C133.55 260.855 132.779 259.699 132.214 258.368C131.646 257.041 131.362 255.613 131.362 254.083V226.792H136.68V254.083C136.68 255.613 137.194 256.905 138.222 257.96C139.249 259.014 140.508 259.542 141.998 259.542H157.953C159.44 259.542 160.699 259.014 161.73 257.96C162.758 256.905 163.272 255.613 163.272 254.083Z" fill="#8CB600" fill-opacity="0.1"/>
<path d="M210.609 254.083C210.609 255.54 210.333 256.923 209.782 258.232C209.234 259.542 208.481 260.698 207.521 261.7C206.565 262.699 205.441 263.498 204.148 264.099C202.851 264.7 201.459 265 199.972 265H184.018C182.561 265 181.195 264.719 179.919 264.157C178.643 263.591 177.527 262.817 176.571 261.836C175.611 260.855 174.849 259.699 174.284 258.368C173.716 257.041 173.415 255.613 173.381 254.083H178.699C178.699 255.613 179.213 256.905 180.241 257.96C181.268 259.014 182.527 259.542 184.018 259.542H199.972C201.459 259.542 202.717 259.014 203.744 257.96C204.775 256.905 205.291 255.613 205.291 254.083C205.291 252.557 204.775 251.267 203.744 250.212C202.717 249.154 201.459 248.625 199.972 248.625H184.018C182.599 248.625 181.241 248.344 179.945 247.782C178.652 247.216 177.518 246.443 176.545 245.461C175.569 244.48 174.796 243.324 174.228 241.993C173.663 240.666 173.381 239.238 173.381 237.709C173.381 236.256 173.655 234.873 174.203 233.56C174.754 232.25 175.508 231.096 176.464 230.097C177.42 229.095 178.546 228.294 179.842 227.693C181.135 227.092 182.527 226.792 184.018 226.792H199.972C201.388 226.792 202.734 227.075 204.01 227.641C205.289 228.203 206.407 228.976 207.363 229.961C208.319 230.942 209.09 232.097 209.675 233.424C210.26 234.754 210.572 236.182 210.609 237.709H205.291C205.291 236.182 204.775 234.892 203.744 233.837C202.717 232.779 201.459 232.25 199.972 232.25H184.018C182.527 232.25 181.268 232.779 180.241 233.837C179.213 234.892 178.699 236.182 178.699 237.709C178.699 239.238 179.213 240.53 180.241 241.585C181.268 242.64 182.527 243.167 184.018 243.167H199.972C201.354 243.167 202.691 243.45 203.984 244.015C205.281 244.578 206.415 245.351 207.389 246.336C208.365 247.317 209.146 248.471 209.731 249.799C210.316 251.129 210.609 252.557 210.609 254.083Z" fill="#8CB600" fill-opacity="0.1"/>
</g>
<defs>
<filter id="filter0_i_867_1399" x="0" y="-0.000244141" width="213" height="269" filterUnits="userSpaceOnUse" color-interpolation-filters="sRGB">
<feFlood flood-opacity="0" result="BackgroundImageFix"/>
<feBlend mode="normal" in="SourceGraphic" in2="BackgroundImageFix" result="shape"/>
<feColorMatrix in="SourceAlpha" type="matrix" values="0 0 0 0 0 0 0 0 0 0 0 0 0 0 0 0 0 0 127 0" result="hardAlpha"/>
<feOffset dy="4"/>
<feGaussianBlur stdDeviation="2"/>
<feComposite in2="hardAlpha" operator="arithmetic" k2="-1" k3="1"/>
<feColorMatrix type="matrix" values="0 0 0 0 0.0784314 0 0 0 0 0.0823529 0 0 0 0 0.0666667 0 0 0 0.05 0"/>
<feBlend mode="normal" in2="shape" result="effect1_innerShadow_867_1399"/>
</filter>
</defs>
</svg>
