<svg width="103" height="128" viewBox="0 0 103 128" fill="none" xmlns="http://www.w3.org/2000/svg">
<path d="M89.7471 -6.10352e-05H73.4822C56.4289 0.0195252 40.0796 6.97298 28.0211 19.3348C15.9626 31.6966 9.17975 48.4572 9.16064 65.9394V82.6134C9.16447 86.2155 10.562 89.669 13.0466 92.2161C15.5312 94.7632 18.8999 96.1958 22.4137 96.1997H38.6786C55.7318 96.1802 72.0812 89.2267 84.1396 76.8649C96.1981 64.5031 102.981 47.7425 103 30.2603V13.5863C102.996 9.98418 101.599 6.53071 99.1141 3.98362C96.6295 1.43653 93.2608 0.00385645 89.7471 -6.10352e-05ZM99.3909 30.2603C99.3727 46.7615 92.9704 62.5816 81.5886 74.2497C70.2068 85.9178 54.7749 92.4811 38.6786 92.4998H22.4137C19.8568 92.4968 17.4056 91.4543 15.5976 89.6009C13.7897 87.7474 12.7727 85.2345 12.7699 82.6134V65.9394C12.788 49.4382 19.1903 33.6181 30.5721 21.95C41.954 10.2819 57.3858 3.71854 73.4822 3.69993H89.7471C92.3039 3.70287 94.7551 4.74541 96.5631 6.59883C98.371 8.45225 99.388 10.9652 99.3909 13.5863V30.2603Z" fill="#CDEB69"/>
<path d="M5.14355 109.545H12.8589C13.545 109.545 14.1966 109.681 14.8136 109.955C15.4306 110.226 15.9712 110.6 16.4352 111.076C16.8975 111.549 17.2702 112.107 17.5532 112.748C17.8362 113.391 17.986 114.081 18.0024 114.818H15.4306C15.4306 114.081 15.1822 113.457 14.6853 112.948C14.1884 112.437 13.5796 112.181 12.8589 112.181H5.14355C4.4245 112.181 3.81653 112.437 3.31961 112.948C2.82105 113.457 2.57178 114.081 2.57178 114.818V122.727C2.57178 123.466 2.82105 124.09 3.31961 124.599C3.81653 125.109 4.4245 125.364 5.14355 125.364H12.8589C13.5796 125.364 14.1884 125.109 14.6853 124.599C15.1822 124.09 15.4306 123.466 15.4306 122.727H18.0024C18.0024 123.43 17.87 124.098 17.605 124.731C17.3385 125.364 16.974 125.922 16.5117 126.406C16.0493 126.888 15.5047 127.275 14.8778 127.565C14.2525 127.855 13.5796 128 12.8589 128H5.14355C4.45906 128 3.80336 127.864 3.17646 127.593C2.55121 127.319 2.00246 126.946 1.53023 126.472C1.05965 125.998 0.686961 125.439 0.412178 124.797C0.137395 124.156 0 123.466 0 122.727V114.818C0 114.116 0.133281 113.448 0.399837 112.814C0.664747 112.181 1.0292 111.628 1.49321 111.154C1.95557 110.68 2.49938 110.298 3.12463 110.008C3.75153 109.718 4.4245 109.563 5.14355 109.545Z" fill="#CDEB69"/>
<path d="M20.0557 128V109.545H22.6274V128H20.0557Z" fill="#CDEB69"/>
<path d="M41.9257 112.181H34.2104V128H31.6387V112.181H23.9233V109.545H41.9257V112.181Z" fill="#CDEB69"/>
<path d="M58.6352 117.454V114.818C58.6352 114.081 58.3868 113.457 57.8899 112.948C57.3929 112.437 56.7841 112.181 56.0635 112.181H45.7764V120.091H56.0635C56.7841 120.091 57.3929 119.836 57.8899 119.326C58.3868 118.817 58.6352 118.193 58.6352 117.454ZM61.207 128H59.3806L54.237 122.727H45.7764V128H43.2046V109.545H56.0635C56.7315 109.545 57.379 109.681 58.0059 109.955C58.6311 110.226 59.1799 110.6 59.6521 111.076C60.1227 111.549 60.4995 112.107 60.7825 112.748C61.0655 113.391 61.207 114.081 61.207 114.818V117.454C61.207 118.018 61.1214 118.558 60.9503 119.076C60.7792 119.596 60.5348 120.075 60.2173 120.513C59.8997 120.953 59.5221 121.345 59.0844 121.687C58.6484 122.03 58.1646 122.288 57.6332 122.464L61.207 126.13V128Z" fill="#CDEB69"/>
<path d="M78.9531 122.727V109.545H81.5249V122.727C81.5249 123.43 81.3916 124.098 81.125 124.731C80.8601 125.364 80.4957 125.922 80.0317 126.406C79.5693 126.888 79.0255 127.275 78.4002 127.565C77.7733 127.855 77.1004 128 76.3813 128H68.666C67.9799 128 67.3242 127.864 66.6989 127.593C66.072 127.319 65.5233 126.946 65.0527 126.472C64.5805 125.998 64.2078 125.439 63.9346 124.797C63.6599 124.156 63.5225 123.466 63.5225 122.727V109.545H66.0942V122.727C66.0942 123.466 66.3427 124.09 66.8396 124.599C67.3365 125.109 67.9453 125.364 68.666 125.364H76.3813C77.1004 125.364 77.7092 125.109 78.2077 124.599C78.7046 124.09 78.9531 123.466 78.9531 122.727Z" fill="#CDEB69"/>
<path d="M101.844 122.727C101.844 123.43 101.71 124.098 101.444 124.731C101.179 125.364 100.815 125.922 100.351 126.406C99.8881 126.888 99.3443 127.275 98.7191 127.565C98.0922 127.855 97.4192 128 96.7002 128H88.9849C88.2806 128 87.62 127.864 87.003 127.593C86.3859 127.319 85.8462 126.946 85.3839 126.472C84.9199 125.998 84.5513 125.439 84.2782 124.797C84.0034 124.156 83.8578 123.466 83.8413 122.727H86.4131C86.4131 123.466 86.6615 124.09 87.1585 124.599C87.6554 125.109 88.2642 125.364 88.9849 125.364H96.7002C97.4192 125.364 98.0272 125.109 98.5241 124.599C99.0227 124.09 99.2719 123.466 99.2719 122.727C99.2719 121.99 99.0227 121.367 98.5241 120.857C98.0272 120.346 97.4192 120.091 96.7002 120.091H88.9849C88.2987 120.091 87.6422 119.955 87.0153 119.683C86.39 119.41 85.8421 119.036 85.3715 118.562C84.8993 118.088 84.5258 117.53 84.251 116.887C83.9779 116.246 83.8413 115.556 83.8413 114.818C83.8413 114.116 83.9738 113.448 84.2387 112.814C84.5052 112.181 84.8697 111.624 85.332 111.141C85.7944 110.657 86.339 110.27 86.9659 109.98C87.5912 109.69 88.2642 109.545 88.9849 109.545H96.7002C97.3847 109.545 98.0354 109.681 98.6524 109.955C99.2711 110.226 99.8116 110.6 100.274 111.076C100.736 111.549 101.109 112.107 101.392 112.748C101.675 113.391 101.826 114.081 101.844 114.818H99.2719C99.2719 114.081 99.0227 113.457 98.5241 112.948C98.0272 112.437 97.4192 112.181 96.7002 112.181H88.9849C88.2642 112.181 87.6554 112.437 87.1585 112.948C86.6615 113.457 86.4131 114.081 86.4131 114.818C86.4131 115.556 86.6615 116.181 87.1585 116.69C87.6554 117.199 88.2642 117.454 88.9849 117.454H96.7002C97.3682 117.454 98.0148 117.591 98.6401 117.864C99.267 118.136 99.8157 118.509 100.286 118.985C100.759 119.459 101.136 120.016 101.419 120.657C101.702 121.3 101.844 121.99 101.844 122.727Z" fill="#CDEB69"/>
</svg>
