<svg width="42" height="42" viewBox="0 0 42 42" fill="none" xmlns="http://www.w3.org/2000/svg">
<rect width="42" height="42" rx="21" fill="#CDEB69"/>
<rect x="0.5" y="0.5" width="41" height="41" rx="20.5" stroke="#FBFBFB" stroke-opacity="0.1"/>
<path d="M28.0498 13.91C27.1328 12.9842 26.0408 12.25 24.8373 11.7504C23.6338 11.2508 22.3429 10.9957 21.0398 11.0001C15.5798 11.0001 11.1298 15.45 11.1298 20.91C11.1298 22.66 11.5898 24.36 12.4498 25.86L11.0498 31L16.2998 29.62C17.7498 30.41 19.3798 30.83 21.0398 30.83C26.4998 30.83 30.9498 26.38 30.9498 20.92C30.9498 18.27 29.9198 15.78 28.0498 13.91ZM21.0398 29.15C19.5598 29.15 18.1098 28.75 16.8398 28L16.5398 27.82L13.4198 28.64L14.2498 25.6L14.0498 25.29C13.2273 23.9771 12.7907 22.4593 12.7898 20.91C12.7898 16.37 16.4898 12.67 21.0298 12.67C23.2298 12.67 25.2998 13.53 26.8498 15.09C27.6174 15.8539 28.2257 16.7626 28.6394 17.7634C29.0531 18.7641 29.264 19.8371 29.2598 20.92C29.2798 25.46 25.5798 29.15 21.0398 29.15ZM25.5598 22.99C25.3098 22.87 24.0898 22.27 23.8698 22.18C23.6398 22.1 23.4798 22.06 23.3098 22.3C23.1398 22.55 22.6698 23.11 22.5298 23.27C22.3898 23.44 22.2398 23.46 21.9898 23.33C21.7398 23.21 20.9398 22.94 19.9998 22.1C19.2598 21.44 18.7698 20.63 18.6198 20.38C18.4798 20.13 18.5998 20 18.7298 19.87C18.8398 19.76 18.9798 19.58 19.0998 19.44C19.2198 19.3 19.2698 19.19 19.3498 19.03C19.4298 18.86 19.3898 18.72 19.3298 18.6C19.2698 18.48 18.7698 17.26 18.5698 16.76C18.3698 16.28 18.1598 16.34 18.0098 16.33H17.5298C17.3598 16.33 17.0998 16.39 16.8698 16.64C16.6498 16.89 16.0098 17.49 16.0098 18.71C16.0098 19.93 16.8998 21.11 17.0198 21.27C17.1398 21.44 18.7698 23.94 21.2498 25.01C21.8398 25.27 22.2998 25.42 22.6598 25.53C23.2498 25.72 23.7898 25.69 24.2198 25.63C24.6998 25.56 25.6898 25.03 25.8898 24.45C26.0998 23.87 26.0998 23.38 26.0298 23.27C25.9598 23.16 25.8098 23.11 25.5598 22.99Z" fill="#141511"/>
</svg>
